{
  "source": "C:\\Users\\Peter\\Desktop\\stuff\\MIUN\\quantitative_research\\video_compression\\videos\\BVI-HD\\BVI-HD_CDVL_videos\\ORIG\\Bookcase_1920x1080_60fps.mp4",
  "output": "C:\\Users\\Peter\\Desktop\\stuff\\MIUN\\quantitative_research\\video_compression\\compressed_videos\\BVI-HD\\hevc\\4\\Bookcase_1920x1080_60fps_hevc.mp4",
  "codec": "hevc",
  "ok": "Input #0, mov,mp4,m4a,3gp,3g2,mj2, from 'C:\\Users\\Peter\\Desktop\\stuff\\MIUN\\quantitative_research\\video_compression\\videos\\BVI-HD\\BVI-HD_CDVL_videos\\ORIG\\Bookcase_1920x1080_60fps.mp4':\n  Metadata:\n    major_brand     : isom\n    minor_version   : 512\n    compatible_brands: isomiso2avc1mp41\n    encoder         : Lavf54.28.101\n  Duration: 00:00:05.00, start: 0.000000, bitrate: 336321 kb/s\n  Stream #0:0[0x1](und): Video: h264 (High 4:4:4 Predictive) (avc1 / 0x31637661), yuv420p(progressive), 1920x1080, 336316 kb/s, 60 fps, 60 tbr, 60 tbn (default)\n    Metadata:\n      handler_name    : VideoHandler\n      vendor_id       : [0][0][0][0]\n[out#0/mp4 @ 00000296084dac40] Codec AVOption b:a (set bitrate (in bits/s)) has not been used for any stream. The most likely reason is either wrong type (e.g. a video option with no video streams) or that it is a private option of some decoder which was not actually used for any stream.\nStream mapping:\n  Stream #0:0 -> #0:0 (h264 (native) -> hevc (libx265))\nPress [q] to stop, [?] for help\n[libx265 @ 0000029608c30580] Unknown option: \"aq-mode.\nx265 [info]: HEVC encoder version 4.1+190-8f11c33ac\nx265 [info]: build info [Windows][GCC 15.1.0][64 bit] 10bit\nx265 [info]: using cpu capabilities: MMX2 SSE2Fast LZCNT SSSE3 SSE4.2 AVX FMA3 BMI2 AVX2\nx265 [info]: Main 10 profile, Level-4.1 (Main tier)\nx265 [info]: Thread pool created using 12 threads\nx265 [info]: Slices                              : 1\nx265 [info]: frame threads / pool features       : 3 / wpp(17 rows)\nx265 [info]: Coding QT: max CU size, min CU size : 64 / 8\nx265 [info]: Residual QT: max TU size, max depth : 32 / 1 inter / 1 intra\nx265 [info]: ME / range / subpel / merge         : star / 57 / 3 / 3\nx265 [info]: Keyframe min / max / scenecut / bias  : 25 / 250 / 40 / 5.00 \nx265 [info]: Lookahead / bframes / badapt        : 25 / 4 / 2\nx265 [info]: b-pyramid / weightp / weightb       : 1 / 1 / 0\nx265 [info]: References / ref-limit  cu / depth  : 4 / on / on\nx265 [info]: AQ: mode / str / qg-size / cu-tree  : 2 / 1.0 / 32 / 1\nx265 [info]: Rate Control / qCompress            : ABR-4000 kbps / 0.60\nx265 [info]: VBV/HRD buffer / max-rate / init    : 4000 / 4000 / 0.750\nx265 [info]: tools: rect limit-modes rd=4 psy-rd=2.00 rdoq=2 psy-rdoq=1.00\nx265 [info]: tools: rskip mode=1 signhide tmvp strong-intra-smoothing lslices=4\nx265 [info]: tools: deblock sao dhdr10-info\nOutput #0, mp4, to 'C:\\Users\\Peter\\Desktop\\stuff\\MIUN\\quantitative_research\\video_compression\\compressed_videos\\BVI-HD\\hevc\\4\\Bookcase_1920x1080_60fps_hevc.mp4':\n  Metadata:\n    major_brand     : isom\n    minor_version   : 512\n    compatible_brands: isomiso2avc1mp41\n    encoder         : Lavf62.3.100\n  Stream #0:0(und): Video: hevc (hev1 / 0x31766568), yuv420p10le(tv, progressive), 1920x1080, q=2-31, 4000 kb/s, 60 fps, 15360 tbn (default)\n    Metadata:\n      encoder         : Lavc62.11.100 libx265\n      handler_name    : VideoHandler\n      vendor_id       : [0][0][0][0]\n    Side data:\n      cpb: bitrate max/min/avg: 4000000/0/4000000 buffer size: 4000000 vbv_delay: N/A\nframe=    0 fps=0.0 q=0.0 size=       0KiB time=N/A bitrate=N/A speed=N/A elapsed=0:00:00.51    \nframe=    0 fps=0.0 q=0.0 size=       0KiB time=N/A bitrate=N/A speed=N/A elapsed=0:00:01.06    \nframe=    0 fps=0.0 q=0.0 size=       0KiB time=N/A bitrate=N/A speed=N/A elapsed=0:00:01.61    \nframe=    0 fps=0.0 q=0.0 size=       0KiB time=N/A bitrate=N/A speed=N/A elapsed=0:00:02.12    \nframe=    0 fps=0.0 q=0.0 size=       0KiB time=N/A bitrate=N/A speed=N/A elapsed=0:00:02.64    \nframe=    0 fps=0.0 q=0.0 size=       0KiB time=N/A bitrate=N/A speed=N/A elapsed=0:00:03.19    \nframe=    0 fps=0.0 q=0.0 size=       0KiB time=N/A bitrate=N/A speed=N/A elapsed=0:00:03.74    \nframe=    0 fps=0.0 q=0.0 size=       0KiB time=N/A bitrate=N/A speed=N/A elapsed=0:00:04.27    \nframe=    0 fps=0.0 q=0.0 size=       0KiB time=N/A bitrate=N/A speed=N/A elapsed=0:00:04.82    \nframe=    0 fps=0.0 q=0.0 size=       0KiB time=N/A bitrate=N/A speed=N/A elapsed=0:00:05.38    \nframe=    0 fps=0.0 q=0.0 size=       0KiB time=N/A bitrate=N/A speed=N/A elapsed=0:00:05.90    \nframe=    0 fps=0.0 q=0.0 size=       0KiB time=N/A bitrate=N/A speed=N/A elapsed=0:00:06.41    \nframe=    0 fps=0.0 q=0.0 size=       0KiB time=N/A bitrate=N/A speed=N/A elapsed=0:00:06.95    \nframe=    0 fps=0.0 q=0.0 size=       0KiB time=N/A bitrate=N/A speed=N/A elapsed=0:00:07.47    \nframe=    0 fps=0.0 q=0.0 size=       0KiB time=N/A bitrate=N/A speed=N/A elapsed=0:00:08.00    \nframe=    0 fps=0.0 q=0.0 size=       0KiB time=N/A bitrate=N/A speed=N/A elapsed=0:00:08.51    \nframe=    0 fps=0.0 q=0.0 size=       0KiB time=N/A bitrate=N/A speed=N/A elapsed=0:00:09.08    \nframe=    0 fps=0.0 q=0.0 size=       0KiB time=N/A bitrate=N/A speed=N/A elapsed=0:00:09.60    \nframe=    0 fps=0.0 q=0.0 size=       0KiB time=N/A bitrate=N/A speed=N/A elapsed=0:00:10.15    \nframe=    1 fps=0.1 q=32.3 size=       0KiB time=-00:00:00.01 bitrate=N/A speed=N/A elapsed=0:00:10.67    \nframe=    1 fps=0.1 q=32.3 size=       0KiB time=-00:00:00.01 bitrate=N/A speed=N/A elapsed=0:00:11.20    \nframe=    2 fps=0.2 q=34.2 size=       0KiB time=00:00:00.00 bitrate=N/A speed=   0x elapsed=0:00:11.73    \nframe=    3 fps=0.2 q=40.8 size=       0KiB time=00:00:00.01 bitrate=  21.1kbits/s speed=0.00135x elapsed=0:00:12.33    \nframe=    3 fps=0.2 q=40.8 size=       0KiB time=00:00:00.01 bitrate=  21.1kbits/s speed=0.00129x elapsed=0:00:12.90    \nframe=    4 fps=0.3 q=42.0 size=       0KiB time=00:00:00.03 bitrate=  10.6kbits/s speed=0.00248x elapsed=0:00:13.42    \nframe=    5 fps=0.4 q=38.9 size=       0KiB time=00:00:00.05 bitrate=   7.0kbits/s speed=0.00357x elapsed=0:00:13.98    \nframe=    6 fps=0.4 q=32.7 size=       0KiB time=00:00:00.06 bitrate=   5.3kbits/s speed=0.00459x elapsed=0:00:14.51    \nframe=    6 fps=0.4 q=32.7 size=       0KiB time=00:00:00.06 bitrate=   5.3kbits/s speed=0.00442x elapsed=0:00:15.09    \nframe=    7 fps=0.4 q=35.3 size=       0KiB time=00:00:00.08 bitrate=   4.2kbits/s speed=0.00533x elapsed=0:00:15.62    \nframe=    8 fps=0.5 q=34.0 size=       0KiB time=00:00:00.10 bitrate=   3.5kbits/s speed=0.00619x elapsed=0:00:16.16    \nframe=    8 fps=0.5 q=34.0 size=       0KiB time=00:00:00.10 bitrate=   3.5kbits/s speed=0.00599x elapsed=0:00:16.69    \nframe=    8 fps=0.5 q=34.0 size=       0KiB time=00:00:00.10 bitrate=   3.5kbits/s speed=0.0058x elapsed=0:00:17.23    \nframe=    8 fps=0.5 q=34.0 size=       0KiB time=00:00:00.10 bitrate=   3.5kbits/s speed=0.00563x elapsed=0:00:17.77    \nframe=    8 fps=0.4 q=34.0 size=       0KiB time=00:00:00.10 bitrate=   3.5kbits/s speed=0.00546x elapsed=0:00:18.32    \nframe=    9 fps=0.5 q=33.2 size=       0KiB time=00:00:00.11 bitrate=   3.0kbits/s speed=0.00619x elapsed=0:00:18.85    \nframe=    9 fps=0.5 q=33.2 size=       0KiB time=00:00:00.11 bitrate=   3.0kbits/s speed=0.00603x elapsed=0:00:19.35    \nframe=   11 fps=0.6 q=28.9 size=       0KiB time=00:00:00.15 bitrate=   2.3kbits/s speed=0.00754x elapsed=0:00:19.89    \nframe=   11 fps=0.5 q=28.9 size=       0KiB time=00:00:00.15 bitrate=   2.3kbits/s speed=0.00735x elapsed=0:00:20.41    \nframe=   13 fps=0.6 q=33.7 size=       0KiB time=00:00:00.18 bitrate=   1.9kbits/s speed=0.00876x elapsed=0:00:20.92    \nframe=   13 fps=0.6 q=33.7 size=       0KiB time=00:00:00.18 bitrate=   1.9kbits/s speed=0.00855x elapsed=0:00:21.44    \nframe=   13 fps=0.6 q=33.7 size=       0KiB time=00:00:00.18 bitrate=   1.9kbits/s speed=0.00834x elapsed=0:00:21.97    \nframe=   13 fps=0.6 q=33.7 size=       0KiB time=00:00:00.18 bitrate=   1.9kbits/s speed=0.00814x elapsed=0:00:22.51    \nframe=   13 fps=0.6 q=33.7 size=       0KiB time=00:00:00.18 bitrate=   1.9kbits/s speed=0.00795x elapsed=0:00:23.06    \nframe=   13 fps=0.6 q=33.7 size=       0KiB time=00:00:00.18 bitrate=   1.9kbits/s speed=0.00776x elapsed=0:00:23.63    \nframe=   14 fps=0.6 q=35.3 size=       0KiB time=00:00:00.20 bitrate=   1.8kbits/s speed=0.00827x elapsed=0:00:24.19    \nframe=   14 fps=0.6 q=35.3 size=       0KiB time=00:00:00.20 bitrate=   1.8kbits/s speed=0.00808x elapsed=0:00:24.73    \nframe=   15 fps=0.6 q=35.9 size=       0KiB time=00:00:00.21 bitrate=   1.6kbits/s speed=0.00856x elapsed=0:00:25.30    \nframe=   16 fps=0.6 q=28.8 size=       0KiB time=00:00:00.23 bitrate=   1.5kbits/s speed=0.00901x elapsed=0:00:25.89    \nframe=   17 fps=0.6 q=34.7 size=       0KiB time=00:00:00.25 bitrate=   1.4kbits/s speed=0.00946x elapsed=0:00:26.42    \nframe=   17 fps=0.6 q=34.7 size=       0KiB time=00:00:00.25 bitrate=   1.4kbits/s speed=0.00927x elapsed=0:00:26.96    \nframe=   18 fps=0.7 q=34.8 size=       0KiB time=00:00:00.26 bitrate=   1.3kbits/s speed=0.0097x elapsed=0:00:27.48    \nframe=   18 fps=0.6 q=34.8 size=       0KiB time=00:00:00.26 bitrate=   1.3kbits/s speed=0.00951x elapsed=0:00:28.03    \nframe=   18 fps=0.6 q=34.8 size=       0KiB time=00:00:00.26 bitrate=   1.3kbits/s speed=0.00934x elapsed=0:00:28.54    \nframe=   19 fps=0.7 q=34.7 size=       0KiB time=00:00:00.28 bitrate=   1.2kbits/s speed=0.00975x elapsed=0:00:29.06    \nframe=   19 fps=0.6 q=34.7 size=       0KiB time=00:00:00.28 bitrate=   1.2kbits/s speed=0.00957x elapsed=0:00:29.59    \nframe=   20 fps=0.7 q=34.8 size=       0KiB time=00:00:00.30 bitrate=   1.2kbits/s speed=0.00996x elapsed=0:00:30.13    \nframe=   21 fps=0.7 q=28.0 size=       0KiB time=00:00:00.31 bitrate=   1.1kbits/s speed=0.0103x elapsed=0:00:30.65    \nframe=   21 fps=0.7 q=28.0 size=       0KiB time=00:00:00.31 bitrate=   1.1kbits/s speed=0.0102x elapsed=0:00:31.17    \nframe=   21 fps=0.7 q=28.0 size=       0KiB time=00:00:00.31 bitrate=   1.1kbits/s speed=0.00999x elapsed=0:00:31.70    \nframe=   22 fps=0.7 q=33.9 size=       0KiB time=00:00:00.33 bitrate=   1.1kbits/s speed=0.0103x elapsed=0:00:32.21    \nframe=   23 fps=0.7 q=34.8 size=       0KiB time=00:00:00.33 bitrate=   1.1kbits/s speed=0.0102x elapsed=0:00:32.74    \nframe=   24 fps=0.7 q=27.7 size=       0KiB time=00:00:00.36 bitrate=   1.0kbits/s speed=0.011x elapsed=0:00:33.31    \nframe=   24 fps=0.7 q=27.7 size=       0KiB time=00:00:00.36 bitrate=   1.0kbits/s speed=0.0108x elapsed=0:00:33.84    \nframe=   24 fps=0.7 q=27.7 size=       0KiB time=00:00:00.36 bitrate=   1.0kbits/s speed=0.0107x elapsed=0:00:34.38    \nframe=   24 fps=0.7 q=27.7 size=       0KiB time=00:00:00.36 bitrate=   1.0kbits/s speed=0.0105x elapsed=0:00:34.91    \nframe=   25 fps=0.7 q=32.4 size=       0KiB time=00:00:00.38 bitrate=   0.9kbits/s speed=0.0108x elapsed=0:00:35.43    \nframe=   26 fps=0.7 q=33.8 size=       0KiB time=00:00:00.40 bitrate=   0.9kbits/s speed=0.0111x elapsed=0:00:35.96    \nframe=   26 fps=0.7 q=33.8 size=       0KiB time=00:00:00.40 bitrate=   0.9kbits/s speed=0.011x elapsed=0:00:36.51    \nframe=   26 fps=0.7 q=33.8 size=       0KiB time=00:00:00.40 bitrate=   0.9kbits/s speed=0.0108x elapsed=0:00:37.12    \nframe=   26 fps=0.7 q=33.8 size=       0KiB time=00:00:00.40 bitrate=   0.9kbits/s speed=0.0106x elapsed=0:00:37.64    \nframe=   26 fps=0.7 q=33.8 size=       0KiB time=00:00:00.40 bitrate=   0.9kbits/s speed=0.0105x elapsed=0:00:38.20    \nframe=   26 fps=0.7 q=33.8 size=       0KiB time=00:00:00.40 bitrate=   0.9kbits/s speed=0.0103x elapsed=0:00:38.73    \nframe=   27 fps=0.7 q=27.8 size=       0KiB time=00:00:00.41 bitrate=   0.8kbits/s speed=0.0106x elapsed=0:00:39.29    \nframe=   27 fps=0.7 q=27.8 size=       0KiB time=00:00:00.41 bitrate=   0.8kbits/s speed=0.0105x elapsed=0:00:39.82    \nframe=   27 fps=0.7 q=27.8 size=       0KiB time=00:00:00.41 bitrate=   0.8kbits/s speed=0.0103x elapsed=0:00:40.38    \nframe=   28 fps=0.7 q=28.8 size=       0KiB time=00:00:00.43 bitrate=   0.8kbits/s speed=0.0106x elapsed=0:00:40.92    \nframe=   28 fps=0.7 q=28.8 size=       0KiB time=00:00:00.43 bitrate=   0.8kbits/s speed=0.0104x elapsed=0:00:41.47    \nframe=   29 fps=0.7 q=33.7 size=       0KiB time=00:00:00.45 bitrate=   0.8kbits/s speed=0.0107x elapsed=0:00:42.00    \nframe=   29 fps=0.7 q=33.7 size=       0KiB time=00:00:00.45 bitrate=   0.8kbits/s speed=0.0106x elapsed=0:00:42.56    \nframe=   29 fps=0.7 q=33.7 size=       0KiB time=00:00:00.45 bitrate=   0.8kbits/s speed=0.0104x elapsed=0:00:43.13    \nframe=   29 fps=0.7 q=33.7 size=       0KiB time=00:00:00.45 bitrate=   0.8kbits/s speed=0.0103x elapsed=0:00:43.65    \nframe=   29 fps=0.7 q=33.7 size=       0KiB time=00:00:00.45 bitrate=   0.8kbits/s speed=0.0102x elapsed=0:00:44.17    \nframe=   29 fps=0.6 q=33.7 size=       0KiB time=00:00:00.45 bitrate=   0.8kbits/s speed=0.0101x elapsed=0:00:44.70    \nframe=   29 fps=0.6 q=33.7 size=       0KiB time=00:00:00.45 bitrate=   0.8kbits/s speed=0.00995x elapsed=0:00:45.21    \nframe=   31 fps=0.7 q=33.6 size=       0KiB time=00:00:00.48 bitrate=   0.7kbits/s speed=0.0106x elapsed=0:00:45.77    \nframe=   31 fps=0.7 q=33.6 size=       0KiB time=00:00:00.48 bitrate=   0.7kbits/s speed=0.0104x elapsed=0:00:46.29    \nframe=   31 fps=0.7 q=33.6 size=       0KiB time=00:00:00.48 bitrate=   0.7kbits/s speed=0.0103x elapsed=0:00:46.83    \nframe=   32 fps=0.7 q=26.9 size=       0KiB time=00:00:00.50 bitrate=   0.7kbits/s speed=0.0106x elapsed=0:00:47.36    \nframe=   33 fps=0.7 q=32.5 size=       0KiB time=00:00:00.50 bitrate=   0.7kbits/s speed=0.0104x elapsed=0:00:47.94    \nframe=   34 fps=0.7 q=26.4 size=       0KiB time=00:00:00.53 bitrate=   0.7kbits/s speed=0.011x elapsed=0:00:48.50    \nframe=   34 fps=0.7 q=26.4 size=       0KiB time=00:00:00.53 bitrate=   0.7kbits/s speed=0.0109x elapsed=0:00:49.04    \nframe=   35 fps=0.7 q=29.9 size=       0KiB time=00:00:00.55 bitrate=   0.6kbits/s speed=0.0111x elapsed=0:00:49.57    \nframe=   35 fps=0.7 q=29.9 size=       0KiB time=00:00:00.55 bitrate=   0.6kbits/s speed=0.011x elapsed=0:00:50.13    \nframe=   35 fps=0.7 q=29.9 size=       0KiB time=00:00:00.55 bitrate=   0.6kbits/s speed=0.0109x elapsed=0:00:50.64    \nframe=   36 fps=0.7 q=31.2 size=       0KiB time=00:00:00.56 bitrate=   0.6kbits/s speed=0.0111x elapsed=0:00:51.15    \nframe=   36 fps=0.7 q=31.2 size=       0KiB time=00:00:00.56 bitrate=   0.6kbits/s speed=0.011x elapsed=0:00:51.72    \nframe=   37 fps=0.7 q=30.5 size=       0KiB time=00:00:00.56 bitrate=   0.6kbits/s speed=0.0108x elapsed=0:00:52.28    \nframe=   37 fps=0.7 q=30.5 size=       0KiB time=00:00:00.58 bitrate=   0.6kbits/s speed=0.011x elapsed=0:00:52.80    \nframe=   38 fps=0.7 q=26.4 size=       0KiB time=00:00:00.60 bitrate=   0.6kbits/s speed=0.0112x elapsed=0:00:53.45    \nframe=   38 fps=0.7 q=26.4 size=       0KiB time=00:00:00.60 bitrate=   0.6kbits/s speed=0.0111x elapsed=0:00:54.02    \nframe=   38 fps=0.7 q=26.4 size=       0KiB time=00:00:00.60 bitrate=   0.6kbits/s speed=0.011x elapsed=0:00:54.55    \nframe=   39 fps=0.7 q=30.2 size=     256KiB time=00:00:00.61 bitrate=3401.4kbits/s speed=0.0112x elapsed=0:00:55.07    \nframe=   39 fps=0.7 q=30.2 size=     256KiB time=00:00:00.61 bitrate=3401.4kbits/s speed=0.0111x elapsed=0:00:55.65    \nframe=   39 fps=0.7 q=30.2 size=     256KiB time=00:00:00.61 bitrate=3401.4kbits/s speed=0.011x elapsed=0:00:56.19    \nframe=   40 fps=0.7 q=31.1 size=     256KiB time=00:00:00.63 bitrate=3311.9kbits/s speed=0.0112x elapsed=0:00:56.71    \nframe=   40 fps=0.7 q=31.1 size=     256KiB time=00:00:00.63 bitrate=3311.9kbits/s speed=0.0111x elapsed=0:00:57.24    \nframe=   40 fps=0.7 q=31.1 size=     256KiB time=00:00:00.63 bitrate=3311.9kbits/s speed=0.011x elapsed=0:00:57.77    \nframe=   40 fps=0.7 q=31.1 size=     256KiB time=00:00:00.63 bitrate=3311.9kbits/s speed=0.0109x elapsed=0:00:58.32    \nframe=   41 fps=0.7 q=29.8 size=     256KiB time=00:00:00.65 bitrate=3226.9kbits/s speed=0.011x elapsed=0:00:58.87    \nframe=   41 fps=0.7 q=29.8 size=     256KiB time=00:00:00.65 bitrate=3226.9kbits/s speed=0.0109x elapsed=0:00:59.44    \nframe=   42 fps=0.7 q=29.8 size=     256KiB time=00:00:00.66 bitrate=3146.3kbits/s speed=0.0111x elapsed=0:00:59.97    \nframe=   43 fps=0.7 q=26.1 size=     256KiB time=00:00:00.68 bitrate=3069.5kbits/s speed=0.0113x elapsed=0:01:00.48    \nframe=   43 fps=0.7 q=26.1 size=     256KiB time=00:00:00.68 bitrate=3069.5kbits/s speed=0.0112x elapsed=0:01:01.01    \nframe=   43 fps=0.7 q=26.1 size=     256KiB time=00:00:00.68 bitrate=3069.5kbits/s speed=0.0111x elapsed=0:01:01.58    \nframe=   43 fps=0.7 q=26.1 size=     256KiB time=00:00:00.68 bitrate=3069.5kbits/s speed=0.011x elapsed=0:01:02.12    \nframe=   44 fps=0.7 q=28.7 size=     256KiB time=00:00:00.70 bitrate=2996.4kbits/s speed=0.0112x elapsed=0:01:02.64    \nframe=   44 fps=0.7 q=28.7 size=     256KiB time=00:00:00.70 bitrate=2996.4kbits/s speed=0.0111x elapsed=0:01:03.15    \nframe=   44 fps=0.7 q=28.7 size=     256KiB time=00:00:00.70 bitrate=2996.4kbits/s speed=0.011x elapsed=0:01:03.69    \nframe=   45 fps=0.7 q=30.7 size=     256KiB time=00:00:00.70 bitrate=2996.4kbits/s speed=0.0109x elapsed=0:01:04.22    \nframe=   45 fps=0.7 q=30.7 size=     256KiB time=00:00:00.71 bitrate=2926.7kbits/s speed=0.0111x elapsed=0:01:04.75    \nframe=   45 fps=0.7 q=30.7 size=     256KiB time=00:00:00.71 bitrate=2926.7kbits/s speed=0.011x elapsed=0:01:05.28    \nframe=   45 fps=0.7 q=30.7 size=     256KiB time=00:00:00.71 bitrate=2926.7kbits/s speed=0.0109x elapsed=0:01:05.86    \nframe=   46 fps=0.7 q=29.1 size=     256KiB time=00:00:00.73 bitrate=2860.2kbits/s speed=0.011x elapsed=0:01:06.44    \nframe=   47 fps=0.7 q=25.6 size=     256KiB time=00:00:00.75 bitrate=2796.7kbits/s speed=0.0112x elapsed=0:01:06.96    \nframe=   48 fps=0.7 q=27.9 size=     256KiB time=00:00:00.75 bitrate=2796.7kbits/s speed=0.0111x elapsed=0:01:07.48    \nframe=   48 fps=0.7 q=27.9 size=     256KiB time=00:00:00.76 bitrate=2735.9kbits/s speed=0.0113x elapsed=0:01:08.04    \nframe=   48 fps=0.7 q=27.9 size=     256KiB time=00:00:00.76 bitrate=2735.9kbits/s speed=0.0112x elapsed=0:01:08.56    \nframe=   48 fps=0.7 q=27.9 size=     256KiB time=00:00:00.76 bitrate=2735.9kbits/s speed=0.0111x elapsed=0:01:09.11    \nframe=   49 fps=0.7 q=29.3 size=     256KiB time=00:00:00.78 bitrate=2677.7kbits/s speed=0.0112x elapsed=0:01:09.65    \nframe=   50 fps=0.7 q=29.9 size=     256KiB time=00:00:00.80 bitrate=2621.9kbits/s speed=0.0114x elapsed=0:01:10.19    \nframe=   50 fps=0.7 q=29.9 size=     256KiB time=00:00:00.80 bitrate=2621.9kbits/s speed=0.0113x elapsed=0:01:10.76    \nframe=   50 fps=0.7 q=29.9 size=     256KiB time=00:00:00.80 bitrate=2621.9kbits/s speed=0.0112x elapsed=0:01:11.31    \nframe=   51 fps=0.7 q=26.1 size=     256KiB time=00:00:00.81 bitrate=2568.4kbits/s speed=0.0114x elapsed=0:01:11.84    \nframe=   51 fps=0.7 q=26.1 size=     256KiB time=00:00:00.81 bitrate=2568.4kbits/s speed=0.0113x elapsed=0:01:12.35    \nframe=   53 fps=0.7 q=30.0 size=     256KiB time=00:00:00.85 bitrate=2467.7kbits/s speed=0.0117x elapsed=0:01:12.88    \nframe=   53 fps=0.7 q=30.0 size=     256KiB time=00:00:00.85 bitrate=2467.7kbits/s speed=0.0116x elapsed=0:01:13.40    \nframe=   53 fps=0.7 q=30.0 size=     256KiB time=00:00:00.85 bitrate=2467.7kbits/s speed=0.0115x elapsed=0:01:13.92    \nframe=   53 fps=0.7 q=30.0 size=     256KiB time=00:00:00.85 bitrate=2467.7kbits/s speed=0.0114x elapsed=0:01:14.43    \nframe=   54 fps=0.7 q=29.3 size=     256KiB time=00:00:00.86 bitrate=2420.2kbits/s speed=0.0116x elapsed=0:01:14.97    \nframe=   54 fps=0.7 q=29.3 size=     256KiB time=00:00:00.86 bitrate=2420.2kbits/s speed=0.0115x elapsed=0:01:15.59    \nframe=   55 fps=0.7 q=30.2 size=     256KiB time=00:00:00.88 bitrate=2374.5kbits/s speed=0.0116x elapsed=0:01:16.10    \nframe=   55 fps=0.7 q=30.2 size=     256KiB time=00:00:00.88 bitrate=2374.5kbits/s speed=0.0115x elapsed=0:01:16.67    \nframe=   55 fps=0.7 q=30.2 size=     256KiB time=00:00:00.88 bitrate=2374.5kbits/s speed=0.0114x elapsed=0:01:17.24    \nframe=   56 fps=0.7 q=26.2 size=     256KiB time=00:00:00.90 bitrate=2330.6kbits/s speed=0.0116x elapsed=0:01:17.85    \nframe=   56 fps=0.7 q=26.2 size=     256KiB time=00:00:00.90 bitrate=2330.6kbits/s speed=0.0115x elapsed=0:01:18.52    \nframe=   56 fps=0.7 q=26.2 size=     256KiB time=00:00:00.90 bitrate=2330.6kbits/s speed=0.0114x elapsed=0:01:19.10    \nframe=   56 fps=0.7 q=26.2 size=     256KiB time=00:00:00.90 bitrate=2330.6kbits/s speed=0.0113x elapsed=0:01:19.62    \nframe=   56 fps=0.7 q=26.2 size=     256KiB time=00:00:00.90 bitrate=2330.6kbits/s speed=0.0112x elapsed=0:01:20.14    \nframe=   57 fps=0.7 q=28.0 size=     256KiB time=00:00:00.91 bitrate=2288.2kbits/s speed=0.0114x elapsed=0:01:20.66    \nframe=   57 fps=0.7 q=28.0 size=     256KiB time=00:00:00.91 bitrate=2288.2kbits/s speed=0.0113x elapsed=0:01:21.18    \nframe=   57 fps=0.7 q=28.0 size=     256KiB time=00:00:00.91 bitrate=2288.2kbits/s speed=0.0112x elapsed=0:01:21.71    \nframe=   57 fps=0.7 q=28.0 size=     256KiB time=00:00:00.91 bitrate=2288.2kbits/s speed=0.0111x elapsed=0:01:22.25    \nframe=   58 fps=0.7 q=30.1 size=     256KiB time=00:00:00.93 bitrate=2247.3kbits/s speed=0.0113x elapsed=0:01:22.76    \nframe=   59 fps=0.7 q=30.6 size=     256KiB time=00:00:00.95 bitrate=2207.9kbits/s speed=0.0114x elapsed=0:01:23.31    \nframe=   61 fps=0.7 q=29.1 size=     256KiB time=00:00:00.98 bitrate=2133.1kbits/s speed=0.0117x elapsed=0:01:23.83    \nframe=   61 fps=0.7 q=29.1 size=     256KiB time=00:00:00.98 bitrate=2133.1kbits/s speed=0.0117x elapsed=0:01:24.35    \nframe=   61 fps=0.7 q=29.1 size=     256KiB time=00:00:00.98 bitrate=2133.1kbits/s speed=0.0116x elapsed=0:01:24.86    \nframe=   63 fps=0.7 q=31.8 size=     256KiB time=00:00:01.01 bitrate=2063.1kbits/s speed=0.0119x elapsed=0:01:25.38    \nframe=   64 fps=0.7 q=25.9 size=     256KiB time=00:00:01.03 bitrate=2029.8kbits/s speed=0.012x elapsed=0:01:25.89    \nframe=   65 fps=0.8 q=30.8 size=     256KiB time=00:00:01.05 bitrate=1997.6kbits/s speed=0.0122x elapsed=0:01:26.41    \nframe=   66 fps=0.8 q=31.7 size=     256KiB time=00:00:01.06 bitrate=1966.4kbits/s speed=0.0123x elapsed=0:01:26.93    \nframe=   66 fps=0.8 q=31.7 size=     256KiB time=00:00:01.06 bitrate=1966.4kbits/s speed=0.0122x elapsed=0:01:27.45    \nframe=   66 fps=0.8 q=31.7 size=     256KiB time=00:00:01.06 bitrate=1966.4kbits/s speed=0.0121x elapsed=0:01:27.98    \nframe=   68 fps=0.8 q=31.8 size=     256KiB time=00:00:01.10 bitrate=1906.8kbits/s speed=0.0124x elapsed=0:01:28.49    \nframe=   68 fps=0.8 q=31.8 size=     256KiB time=00:00:01.10 bitrate=1906.8kbits/s speed=0.0124x elapsed=0:01:29.01    \nframe=   70 fps=0.8 q=29.3 size=     256KiB time=00:00:01.13 bitrate=1850.7kbits/s speed=0.0127x elapsed=0:01:29.54    \nframe=   70 fps=0.8 q=29.3 size=     256KiB time=00:00:01.13 bitrate=1850.7kbits/s speed=0.0126x elapsed=0:01:30.04    \nframe=   70 fps=0.8 q=29.3 size=     256KiB time=00:00:01.13 bitrate=1850.7kbits/s speed=0.0125x elapsed=0:01:30.56    \nframe=   70 fps=0.8 q=29.3 size=     256KiB time=00:00:01.13 bitrate=1850.7kbits/s speed=0.0124x elapsed=0:01:31.15    \nframe=   70 fps=0.8 q=29.3 size=     256KiB time=00:00:01.13 bitrate=1850.7kbits/s speed=0.0124x elapsed=0:01:31.70    \nframe=   71 fps=0.8 q=31.7 size=     256KiB time=00:00:01.15 bitrate=1823.9kbits/s speed=0.0125x elapsed=0:01:32.23    \nframe=   71 fps=0.8 q=31.7 size=     256KiB time=00:00:01.15 bitrate=1823.9kbits/s speed=0.0124x elapsed=0:01:32.77    \nframe=   71 fps=0.8 q=31.7 size=     256KiB time=00:00:01.15 bitrate=1823.9kbits/s speed=0.0123x elapsed=0:01:33.31    \nframe=   72 fps=0.8 q=31.9 size=     256KiB time=00:00:01.16 bitrate=1797.9kbits/s speed=0.0124x elapsed=0:01:33.86    \nframe=   72 fps=0.8 q=31.9 size=     256KiB time=00:00:01.16 bitrate=1797.9kbits/s speed=0.0124x elapsed=0:01:34.40    \nframe=   72 fps=0.8 q=31.9 size=     256KiB time=00:00:01.16 bitrate=1797.9kbits/s speed=0.0123x elapsed=0:01:34.91    \nframe=   72 fps=0.8 q=31.9 size=     256KiB time=00:00:01.16 bitrate=1797.9kbits/s speed=0.0122x elapsed=0:01:35.46    \nframe=   72 fps=0.7 q=31.9 size=     256KiB time=00:00:01.16 bitrate=1797.9kbits/s speed=0.0121x elapsed=0:01:36.07    \nframe=   73 fps=0.8 q=25.6 size=     256KiB time=00:00:01.18 bitrate=1772.5kbits/s speed=0.0122x elapsed=0:01:36.74    \nframe=   73 fps=0.7 q=25.6 size=     256KiB time=00:00:01.18 bitrate=1772.5kbits/s speed=0.0122x elapsed=0:01:37.34    \nframe=   73 fps=0.7 q=25.6 size=     256KiB time=00:00:01.18 bitrate=1772.5kbits/s speed=0.0121x elapsed=0:01:37.93    \nframe=   74 fps=0.8 q=28.5 size=     512KiB time=00:00:01.20 bitrate=3495.5kbits/s speed=0.0122x elapsed=0:01:38.50    \nframe=   75 fps=0.8 q=31.6 size=     512KiB time=00:00:01.21 bitrate=3447.7kbits/s speed=0.0123x elapsed=0:01:39.06    \nframe=   75 fps=0.8 q=31.6 size=     512KiB time=00:00:01.21 bitrate=3447.7kbits/s speed=0.0122x elapsed=0:01:39.62    \nframe=   75 fps=0.7 q=31.6 size=     512KiB time=00:00:01.21 bitrate=3447.7kbits/s speed=0.0121x elapsed=0:01:40.25    \nframe=   75 fps=0.7 q=31.6 size=     512KiB time=00:00:01.21 bitrate=3447.7kbits/s speed=0.0121x elapsed=0:01:40.82    \nframe=   75 fps=0.7 q=31.6 size=     512KiB time=00:00:01.21 bitrate=3447.7kbits/s speed=0.012x elapsed=0:01:41.43    \nframe=   75 fps=0.7 q=31.6 size=     512KiB time=00:00:01.21 bitrate=3447.7kbits/s speed=0.0119x elapsed=0:01:41.98    \nframe=   75 fps=0.7 q=31.6 size=     512KiB time=00:00:01.21 bitrate=3447.7kbits/s speed=0.0119x elapsed=0:01:42.64    \nframe=   75 fps=0.7 q=31.6 size=     512KiB time=00:00:01.21 bitrate=3447.7kbits/s speed=0.0118x elapsed=0:01:43.19    \nframe=   75 fps=0.7 q=31.6 size=     512KiB time=00:00:01.21 bitrate=3447.7kbits/s speed=0.0117x elapsed=0:01:43.77    \nframe=   75 fps=0.7 q=31.6 size=     512KiB time=00:00:01.21 bitrate=3447.7kbits/s speed=0.0117x elapsed=0:01:44.34    \nframe=   75 fps=0.7 q=31.6 size=     512KiB time=00:00:01.21 bitrate=3447.7kbits/s speed=0.0116x elapsed=0:01:44.99    \nframe=   75 fps=0.7 q=31.6 size=     512KiB time=00:00:01.21 bitrate=3447.7kbits/s speed=0.0115x elapsed=0:01:45.68    \nframe=   75 fps=0.7 q=31.6 size=     512KiB time=00:00:01.21 bitrate=3447.7kbits/s speed=0.0115x elapsed=0:01:46.24    \nframe=   76 fps=0.7 q=31.7 size=     512KiB time=00:00:01.23 bitrate=3401.1kbits/s speed=0.0115x elapsed=0:01:46.78    \nframe=   76 fps=0.7 q=31.7 size=     512KiB time=00:00:01.23 bitrate=3401.1kbits/s speed=0.0115x elapsed=0:01:47.32    \nframe=   76 fps=0.7 q=31.7 size=     512KiB time=00:00:01.23 bitrate=3401.1kbits/s speed=0.0114x elapsed=0:01:47.91    \nframe=   76 fps=0.7 q=31.7 size=     512KiB time=00:00:01.23 bitrate=3401.1kbits/s speed=0.0114x elapsed=0:01:48.49    \nframe=   76 fps=0.7 q=31.7 size=     512KiB time=00:00:01.23 bitrate=3401.1kbits/s speed=0.0113x elapsed=0:01:49.09    \nframe=   76 fps=0.7 q=31.7 size=     512KiB time=00:00:01.23 bitrate=3401.1kbits/s speed=0.0112x elapsed=0:01:49.65    \nframe=   76 fps=0.7 q=31.7 size=     512KiB time=00:00:01.23 bitrate=3401.1kbits/s speed=0.0112x elapsed=0:01:50.20    \nframe=   76 fps=0.7 q=31.7 size=     512KiB time=00:00:01.23 bitrate=3401.1kbits/s speed=0.0111x elapsed=0:01:50.73    \nframe=   76 fps=0.7 q=31.7 size=     512KiB time=00:00:01.23 bitrate=3401.1kbits/s speed=0.0111x elapsed=0:01:51.32    \nframe=   76 fps=0.7 q=31.7 size=     512KiB time=00:00:01.23 bitrate=3401.1kbits/s speed=0.011x elapsed=0:01:51.91    \nframe=   76 fps=0.7 q=31.7 size=     512KiB time=00:00:01.23 bitrate=3401.1kbits/s speed=0.011x elapsed=0:01:52.52    \nframe=   76 fps=0.7 q=31.7 size=     512KiB time=00:00:01.23 bitrate=3401.1kbits/s speed=0.0109x elapsed=0:01:53.06    \nframe=   78 fps=0.7 q=25.7 size=     512KiB time=00:00:01.26 bitrate=3311.6kbits/s speed=0.0112x elapsed=0:01:53.58    \nframe=   78 fps=0.7 q=25.7 size=     512KiB time=00:00:01.26 bitrate=3311.6kbits/s speed=0.0111x elapsed=0:01:54.27    \nframe=   78 fps=0.7 q=25.7 size=     512KiB time=00:00:01.26 bitrate=3311.6kbits/s speed=0.011x elapsed=0:01:54.87    \nframe=   78 fps=0.7 q=25.7 size=     512KiB time=00:00:01.26 bitrate=3311.6kbits/s speed=0.011x elapsed=0:01:55.45    \nframe=   79 fps=0.7 q=30.0 size=     512KiB time=00:00:01.28 bitrate=3268.6kbits/s speed=0.0111x elapsed=0:01:56.02    \nframe=   79 fps=0.7 q=30.0 size=     512KiB time=00:00:01.28 bitrate=3268.6kbits/s speed=0.011x elapsed=0:01:56.64    \nframe=   79 fps=0.7 q=30.0 size=     512KiB time=00:00:01.28 bitrate=3268.6kbits/s speed=0.0109x elapsed=0:01:57.24    \nframe=   80 fps=0.7 q=31.9 size=     512KiB time=00:00:01.30 bitrate=3226.7kbits/s speed=0.011x elapsed=0:01:57.80    \nframe=   80 fps=0.7 q=31.9 size=     512KiB time=00:00:01.30 bitrate=3226.7kbits/s speed=0.011x elapsed=0:01:58.35    \nframe=   80 fps=0.7 q=31.9 size=     512KiB time=00:00:01.30 bitrate=3226.7kbits/s speed=0.0109x elapsed=0:01:58.94    \nframe=   80 fps=0.7 q=31.9 size=     512KiB time=00:00:01.30 bitrate=3226.7kbits/s speed=0.0109x elapsed=0:01:59.54    \nframe=   81 fps=0.7 q=31.8 size=     512KiB time=00:00:01.31 bitrate=3185.8kbits/s speed=0.011x elapsed=0:02:00.17    \nframe=   81 fps=0.7 q=31.8 size=     512KiB time=00:00:01.31 bitrate=3185.8kbits/s speed=0.0109x elapsed=0:02:00.70    \nframe=   81 fps=0.7 q=31.8 size=     512KiB time=00:00:01.31 bitrate=3185.8kbits/s speed=0.0109x elapsed=0:02:01.26    \nframe=   81 fps=0.7 q=31.8 size=     512KiB time=00:00:01.31 bitrate=3185.8kbits/s speed=0.0108x elapsed=0:02:01.78    \nframe=   81 fps=0.7 q=31.8 size=     512KiB time=00:00:01.31 bitrate=3185.8kbits/s speed=0.0108x elapsed=0:02:02.34    \nframe=   82 fps=0.7 q=32.7 size=     512KiB time=00:00:01.33 bitrate=3146.0kbits/s speed=0.0109x elapsed=0:02:02.87    \nframe=   82 fps=0.7 q=32.7 size=     512KiB time=00:00:01.33 bitrate=3146.0kbits/s speed=0.0108x elapsed=0:02:03.41    \nframe=   82 fps=0.7 q=32.7 size=     512KiB time=00:00:01.33 bitrate=3146.0kbits/s speed=0.0108x elapsed=0:02:03.99    \nframe=   82 fps=0.7 q=32.7 size=     512KiB time=00:00:01.33 bitrate=3146.0kbits/s speed=0.0107x elapsed=0:02:04.59    \nframe=   82 fps=0.7 q=32.7 size=     512KiB time=00:00:01.33 bitrate=3146.0kbits/s speed=0.0107x elapsed=0:02:05.13    \nframe=   83 fps=0.7 q=26.0 size=     512KiB time=00:00:01.35 bitrate=3107.2kbits/s speed=0.0107x elapsed=0:02:05.68    \nframe=   83 fps=0.7 q=26.0 size=     512KiB time=00:00:01.35 bitrate=3107.2kbits/s speed=0.0107x elapsed=0:02:06.26    \nframe=   83 fps=0.7 q=26.0 size=     512KiB time=00:00:01.35 bitrate=3107.2kbits/s speed=0.0106x elapsed=0:02:06.80    \nframe=   84 fps=0.7 q=26.3 size=     512KiB time=00:00:01.36 bitrate=3069.3kbits/s speed=0.0107x elapsed=0:02:07.44    \nframe=   85 fps=0.7 q=32.9 size=     512KiB time=00:00:01.38 bitrate=3032.3kbits/s speed=0.0108x elapsed=0:02:07.97    \nframe=   85 fps=0.7 q=32.9 size=     512KiB time=00:00:01.38 bitrate=3032.3kbits/s speed=0.0108x elapsed=0:02:08.62    \nframe=   85 fps=0.7 q=32.9 size=     512KiB time=00:00:01.38 bitrate=3032.3kbits/s speed=0.0107x elapsed=0:02:09.16    \nframe=   85 fps=0.7 q=32.9 size=     512KiB time=00:00:01.38 bitrate=3032.3kbits/s speed=0.0107x elapsed=0:02:09.73    \nframe=   85 fps=0.7 q=32.9 size=     512KiB time=00:00:01.38 bitrate=3032.3kbits/s speed=0.0106x elapsed=0:02:10.35    \nframe=   85 fps=0.6 q=32.9 size=     512KiB time=00:00:01.38 bitrate=3032.3kbits/s speed=0.0106x elapsed=0:02:10.87    \nframe=   85 fps=0.6 q=32.9 size=     512KiB time=00:00:01.38 bitrate=3032.3kbits/s speed=0.0105x elapsed=0:02:11.44    \nframe=   86 fps=0.7 q=32.9 size=     512KiB time=00:00:01.40 bitrate=2996.2kbits/s speed=0.0106x elapsed=0:02:12.00    \nframe=   86 fps=0.6 q=32.9 size=     512KiB time=00:00:01.40 bitrate=2996.2kbits/s speed=0.0106x elapsed=0:02:12.62    \nframe=   86 fps=0.6 q=32.9 size=     512KiB time=00:00:01.40 bitrate=2996.2kbits/s speed=0.0105x elapsed=0:02:13.17    \nframe=   86 fps=0.6 q=32.9 size=     512KiB time=00:00:01.40 bitrate=2996.2kbits/s speed=0.0105x elapsed=0:02:13.75    \nframe=   87 fps=0.6 q=32.8 size=     512KiB time=00:00:01.41 bitrate=2960.9kbits/s speed=0.0105x elapsed=0:02:14.29    \nframe=   88 fps=0.7 q=25.4 size=     512KiB time=00:00:01.43 bitrate=2926.5kbits/s speed=0.0106x elapsed=0:02:14.84    \nframe=   88 fps=0.7 q=25.4 size=     512KiB time=00:00:01.43 bitrate=2926.5kbits/s speed=0.0106x elapsed=0:02:15.37    \nframe=   88 fps=0.6 q=25.4 size=     512KiB time=00:00:01.43 bitrate=2926.5kbits/s speed=0.0105x elapsed=0:02:15.94    \nframe=   88 fps=0.6 q=25.4 size=     512KiB time=00:00:01.43 bitrate=2926.5kbits/s speed=0.0105x elapsed=0:02:16.54    \nframe=   89 fps=0.6 q=26.7 size=     512KiB time=00:00:01.45 bitrate=2892.9kbits/s speed=0.0106x elapsed=0:02:17.07    \nframe=   90 fps=0.7 q=33.0 size=     512KiB time=00:00:01.46 bitrate=2860.0kbits/s speed=0.0107x elapsed=0:02:17.59    \nframe=   90 fps=0.7 q=33.0 size=     512KiB time=00:00:01.46 bitrate=2860.0kbits/s speed=0.0106x elapsed=0:02:18.19    \nframe=   90 fps=0.6 q=33.0 size=     512KiB time=00:00:01.46 bitrate=2860.0kbits/s speed=0.0106x elapsed=0:02:18.82    \nframe=   91 fps=0.7 q=33.0 size=     512KiB time=00:00:01.48 bitrate=2827.9kbits/s speed=0.0106x elapsed=0:02:19.41    \nframe=   91 fps=0.6 q=33.0 size=     512KiB time=00:00:01.48 bitrate=2827.9kbits/s speed=0.0106x elapsed=0:02:20.00    \nframe=   92 fps=0.7 q=33.1 size=     512KiB time=00:00:01.50 bitrate=2796.4kbits/s speed=0.0107x elapsed=0:02:20.54    \nframe=   93 fps=0.7 q=25.4 size=     512KiB time=00:00:01.51 bitrate=2765.7kbits/s speed=0.0107x elapsed=0:02:21.12    \nframe=   93 fps=0.7 q=25.4 size=     512KiB time=00:00:01.51 bitrate=2765.7kbits/s speed=0.0107x elapsed=0:02:21.71    \nframe=   93 fps=0.7 q=25.4 size=     512KiB time=00:00:01.51 bitrate=2765.7kbits/s speed=0.0107x elapsed=0:02:22.25    \nframe=   93 fps=0.7 q=25.4 size=     512KiB time=00:00:01.51 bitrate=2765.7kbits/s speed=0.0106x elapsed=0:02:22.76    \nframe=   93 fps=0.6 q=25.4 size=     512KiB time=00:00:01.51 bitrate=2765.7kbits/s speed=0.0106x elapsed=0:02:23.41    \nframe=   93 fps=0.6 q=25.4 size=     512KiB time=00:00:01.51 bitrate=2765.7kbits/s speed=0.0105x elapsed=0:02:23.98    \nframe=   94 fps=0.7 q=28.0 size=     512KiB time=00:00:01.53 bitrate=2735.6kbits/s speed=0.0106x elapsed=0:02:24.51    \nframe=   94 fps=0.6 q=28.0 size=     512KiB time=00:00:01.53 bitrate=2735.6kbits/s speed=0.0106x elapsed=0:02:25.08    \nframe=   95 fps=0.7 q=33.0 size=     512KiB time=00:00:01.55 bitrate=2706.2kbits/s speed=0.0106x elapsed=0:02:25.64    \nframe=   95 fps=0.6 q=33.0 size=     512KiB time=00:00:01.55 bitrate=2706.2kbits/s speed=0.0106x elapsed=0:02:26.20    \nframe=   96 fps=0.7 q=25.3 size=     512KiB time=00:00:01.56 bitrate=2677.4kbits/s speed=0.0107x elapsed=0:02:26.75    \nframe=   97 fps=0.7 q=32.0 size=     512KiB time=00:00:01.58 bitrate=2649.3kbits/s speed=0.0108x elapsed=0:02:27.28    \nframe=   97 fps=0.7 q=32.0 size=     512KiB time=00:00:01.58 bitrate=2649.3kbits/s speed=0.0107x elapsed=0:02:27.80    \nframe=   98 fps=0.7 q=33.0 size=     512KiB time=00:00:01.60 bitrate=2621.7kbits/s speed=0.0108x elapsed=0:02:28.32    \nframe=   98 fps=0.7 q=33.0 size=     512KiB time=00:00:01.60 bitrate=2621.7kbits/s speed=0.0107x elapsed=0:02:28.84    \nframe=   98 fps=0.7 q=33.0 size=     512KiB time=00:00:01.60 bitrate=2621.7kbits/s speed=0.0107x elapsed=0:02:29.38    \nframe=   98 fps=0.7 q=33.0 size=     512KiB time=00:00:01.60 bitrate=2621.7kbits/s speed=0.0107x elapsed=0:02:29.90    \nframe=   99 fps=0.7 q=31.6 size=     512KiB time=00:00:01.61 bitrate=2594.6kbits/s speed=0.0107x elapsed=0:02:30.45    \nframe=  100 fps=0.7 q=31.7 size=     512KiB time=00:00:01.63 bitrate=2568.2kbits/s speed=0.0108x elapsed=0:02:31.00    \nframe=  101 fps=0.7 q=25.3 size=     512KiB time=00:00:01.65 bitrate=2542.2kbits/s speed=0.0109x elapsed=0:02:31.55    \nframe=  102 fps=0.7 q=26.3 size=     768KiB time=00:00:01.66 bitrate=3775.1kbits/s speed=0.011x elapsed=0:02:32.10    \nframe=  102 fps=0.7 q=26.3 size=     768KiB time=00:00:01.66 bitrate=3775.1kbits/s speed=0.0109x elapsed=0:02:32.65    \nframe=  102 fps=0.7 q=26.3 size=     768KiB time=00:00:01.66 bitrate=3775.1kbits/s speed=0.0109x elapsed=0:02:33.17    \nframe=  103 fps=0.7 q=32.0 size=     768KiB time=00:00:01.68 bitrate=3737.7kbits/s speed=0.011x elapsed=0:02:33.69    \nframe=  103 fps=0.7 q=32.0 size=     768KiB time=00:00:01.68 bitrate=3737.7kbits/s speed=0.0109x elapsed=0:02:34.22    \nframe=  103 fps=0.7 q=32.0 size=     768KiB time=00:00:01.68 bitrate=3737.7kbits/s speed=0.0109x elapsed=0:02:34.76    \nframe=  104 fps=0.7 q=32.0 size=     768KiB time=00:00:01.70 bitrate=3701.1kbits/s speed=0.0109x elapsed=0:02:35.31    \nframe=  104 fps=0.7 q=32.0 size=     768KiB time=00:00:01.70 bitrate=3701.1kbits/s speed=0.0109x elapsed=0:02:35.91    \nframe=  105 fps=0.7 q=32.0 size=     768KiB time=00:00:01.71 bitrate=3665.1kbits/s speed=0.011x elapsed=0:02:36.46    \nframe=  105 fps=0.7 q=32.0 size=     768KiB time=00:00:01.71 bitrate=3665.1kbits/s speed=0.0109x elapsed=0:02:36.99    \nframe=  106 fps=0.7 q=25.7 size=     768KiB time=00:00:01.73 bitrate=3629.9kbits/s speed=0.011x elapsed=0:02:37.52    \nframe=  106 fps=0.7 q=25.7 size=     768KiB time=00:00:01.73 bitrate=3629.9kbits/s speed=0.011x elapsed=0:02:38.04    \nframe=  106 fps=0.7 q=25.7 size=     768KiB time=00:00:01.73 bitrate=3629.9kbits/s speed=0.0109x elapsed=0:02:38.58    \nframe=  106 fps=0.7 q=25.7 size=     768KiB time=00:00:01.73 bitrate=3629.9kbits/s speed=0.0109x elapsed=0:02:39.10    \nframe=  108 fps=0.7 q=33.0 size=     768KiB time=00:00:01.76 bitrate=3561.4kbits/s speed=0.0111x elapsed=0:02:39.66    \nframe=  108 fps=0.7 q=33.0 size=     768KiB time=00:00:01.76 bitrate=3561.4kbits/s speed=0.011x elapsed=0:02:40.18    \nframe=  108 fps=0.7 q=33.0 size=     768KiB time=00:00:01.76 bitrate=3561.4kbits/s speed=0.011x elapsed=0:02:40.70    \nframe=  108 fps=0.7 q=33.0 size=     768KiB time=00:00:01.76 bitrate=3561.4kbits/s speed=0.011x elapsed=0:02:41.23    \nframe=  108 fps=0.7 q=33.0 size=     768KiB time=00:00:01.76 bitrate=3561.4kbits/s speed=0.0109x elapsed=0:02:41.76    \nframe=  109 fps=0.7 q=33.0 size=     768KiB time=00:00:01.78 bitrate=3528.1kbits/s speed=0.011x elapsed=0:02:42.28    \nframe=  110 fps=0.7 q=33.0 size=     768KiB time=00:00:01.80 bitrate=3495.4kbits/s speed=0.0111x elapsed=0:02:42.80    \nframe=  111 fps=0.7 q=25.8 size=     768KiB time=00:00:01.81 bitrate=3463.4kbits/s speed=0.0111x elapsed=0:02:43.32    \nframe=  112 fps=0.7 q=32.6 size=     768KiB time=00:00:01.83 bitrate=3431.9kbits/s speed=0.0112x elapsed=0:02:43.86    \nframe=  113 fps=0.7 q=33.9 size=     768KiB time=00:00:01.85 bitrate=3401.0kbits/s speed=0.0113x elapsed=0:02:44.38    \nframe=  113 fps=0.7 q=33.9 size=     768KiB time=00:00:01.85 bitrate=3401.0kbits/s speed=0.0112x elapsed=0:02:45.06    \nframe=  113 fps=0.7 q=33.9 size=     768KiB time=00:00:01.85 bitrate=3401.0kbits/s speed=0.0112x elapsed=0:02:45.61    \nframe=  113 fps=0.7 q=33.9 size=     768KiB time=00:00:01.85 bitrate=3401.0kbits/s speed=0.0111x elapsed=0:02:46.20    \nframe=  115 fps=0.7 q=34.0 size=     768KiB time=00:00:01.88 bitrate=3340.8kbits/s speed=0.0113x elapsed=0:02:46.73    \nframe=  116 fps=0.7 q=25.7 size=     768KiB time=00:00:01.90 bitrate=3311.5kbits/s speed=0.0114x elapsed=0:02:47.26    \nframe=  116 fps=0.7 q=25.7 size=     768KiB time=00:00:01.90 bitrate=3311.5kbits/s speed=0.0113x elapsed=0:02:47.79    \nframe=  117 fps=0.7 q=32.8 size=     768KiB time=00:00:01.91 bitrate=3282.7kbits/s speed=0.0114x elapsed=0:02:48.32    \nframe=  118 fps=0.7 q=33.9 size=     768KiB time=00:00:01.93 bitrate=3254.4kbits/s speed=0.0114x elapsed=0:02:48.85    \nframe=  118 fps=0.7 q=33.9 size=     768KiB time=00:00:01.93 bitrate=3254.4kbits/s speed=0.0114x elapsed=0:02:49.39    \nframe=  118 fps=0.7 q=33.9 size=     768KiB time=00:00:01.93 bitrate=3254.4kbits/s speed=0.0114x elapsed=0:02:49.90    \nframe=  118 fps=0.7 q=33.9 size=     768KiB time=00:00:01.93 bitrate=3254.4kbits/s speed=0.0113x elapsed=0:02:50.45    \nframe=  120 fps=0.7 q=34.0 size=     768KiB time=00:00:01.96 bitrate=3199.2kbits/s speed=0.0115x elapsed=0:02:50.98    \nframe=  120 fps=0.7 q=34.0 size=     768KiB time=00:00:01.96 bitrate=3199.2kbits/s speed=0.0115x elapsed=0:02:51.54    \nframe=  122 fps=0.7 q=32.7 size=     768KiB time=00:00:02.00 bitrate=3145.9kbits/s speed=0.0116x elapsed=0:02:52.08    \nframe=  122 fps=0.7 q=32.7 size=     768KiB time=00:00:02.00 bitrate=3145.9kbits/s speed=0.0116x elapsed=0:02:52.59    \nframe=  123 fps=0.7 q=33.8 size=     768KiB time=00:00:02.01 bitrate=3119.9kbits/s speed=0.0116x elapsed=0:02:53.16    \nframe=  123 fps=0.7 q=33.8 size=     768KiB time=00:00:02.01 bitrate=3119.9kbits/s speed=0.0116x elapsed=0:02:53.70    \nframe=  125 fps=0.7 q=33.9 size=     768KiB time=00:00:02.03 bitrate=3094.3kbits/s speed=0.0117x elapsed=0:02:54.26    \nframe=  125 fps=0.7 q=33.9 size=     768KiB time=00:00:02.05 bitrate=3069.2kbits/s speed=0.0117x elapsed=0:02:54.80    \nframe=  126 fps=0.7 q=25.9 size=     768KiB time=00:00:02.06 bitrate=3044.4kbits/s speed=0.0118x elapsed=0:02:55.33    \nframe=  126 fps=0.7 q=25.9 size=     768KiB time=00:00:02.06 bitrate=3044.4kbits/s speed=0.0118x elapsed=0:02:55.84    \nframe=  128 fps=0.7 q=34.0 size=     768KiB time=00:00:02.10 bitrate=2996.1kbits/s speed=0.0119x elapsed=0:02:56.35    \nframe=  128 fps=0.7 q=34.0 size=     768KiB time=00:00:02.10 bitrate=2996.1kbits/s speed=0.0119x elapsed=0:02:56.87    \nframe=  128 fps=0.7 q=34.0 size=     768KiB time=00:00:02.10 bitrate=2996.1kbits/s speed=0.0118x elapsed=0:02:57.44    \nframe=  129 fps=0.7 q=31.9 size=     768KiB time=00:00:02.11 bitrate=2972.5kbits/s speed=0.0119x elapsed=0:02:57.96    \nframe=  130 fps=0.7 q=31.8 size=     768KiB time=00:00:02.13 bitrate=2949.3kbits/s speed=0.012x elapsed=0:02:58.46    \nframe=  130 fps=0.7 q=31.8 size=     768KiB time=00:00:02.13 bitrate=2949.3kbits/s speed=0.0119x elapsed=0:02:59.02    \nframe=  132 fps=0.7 q=30.8 size=     768KiB time=00:00:02.15 bitrate=2926.4kbits/s speed=0.012x elapsed=0:02:59.52    \nframe=  132 fps=0.7 q=30.8 size=     768KiB time=00:00:02.16 bitrate=2903.9kbits/s speed=0.012x elapsed=0:03:00.04    \nframe=  133 fps=0.7 q=31.6 size=     768KiB time=00:00:02.18 bitrate=2881.7kbits/s speed=0.0121x elapsed=0:03:00.57    \nframe=  134 fps=0.7 q=30.9 size=     768KiB time=00:00:02.20 bitrate=2859.9kbits/s speed=0.0121x elapsed=0:03:01.08    \nframe=  135 fps=0.7 q=30.3 size=     768KiB time=00:00:02.21 bitrate=2838.4kbits/s speed=0.0122x elapsed=0:03:01.59    \nframe=  136 fps=0.7 q=25.8 size=     768KiB time=00:00:02.23 bitrate=2817.2kbits/s speed=0.0123x elapsed=0:03:02.12    \nframe=  136 fps=0.7 q=25.8 size=     768KiB time=00:00:02.23 bitrate=2817.2kbits/s speed=0.0122x elapsed=0:03:02.67    \nframe=  137 fps=0.7 q=29.1 size=    1024KiB time=00:00:02.25 bitrate=3728.4kbits/s speed=0.0123x elapsed=0:03:03.25    \nframe=  138 fps=0.8 q=30.7 size=    1024KiB time=00:00:02.26 bitrate=3701.0kbits/s speed=0.0123x elapsed=0:03:03.78    \nframe=  138 fps=0.7 q=30.7 size=    1024KiB time=00:00:02.26 bitrate=3701.0kbits/s speed=0.0123x elapsed=0:03:04.34    \nframe=  138 fps=0.7 q=30.7 size=    1024KiB time=00:00:02.26 bitrate=3701.0kbits/s speed=0.0123x elapsed=0:03:04.94    \nframe=  138 fps=0.7 q=30.7 size=    1024KiB time=00:00:02.26 bitrate=3701.0kbits/s speed=0.0122x elapsed=0:03:05.47    \nframe=  138 fps=0.7 q=30.7 size=    1024KiB time=00:00:02.26 bitrate=3701.0kbits/s speed=0.0122x elapsed=0:03:06.02    \nframe=  139 fps=0.7 q=32.0 size=    1024KiB time=00:00:02.28 bitrate=3674.0kbits/s speed=0.0122x elapsed=0:03:06.53    \nframe=  140 fps=0.7 q=25.9 size=    1024KiB time=00:00:02.30 bitrate=3647.4kbits/s speed=0.0123x elapsed=0:03:07.09    \nframe=  141 fps=0.8 q=31.3 size=    1024KiB time=00:00:02.31 bitrate=3621.1kbits/s speed=0.0123x elapsed=0:03:07.61    \nframe=  142 fps=0.8 q=32.7 size=    1024KiB time=00:00:02.33 bitrate=3595.3kbits/s speed=0.0124x elapsed=0:03:08.13    \nframe=  143 fps=0.8 q=32.7 size=    1024KiB time=00:00:02.35 bitrate=3569.8kbits/s speed=0.0125x elapsed=0:03:08.65    \nframe=  143 fps=0.8 q=32.7 size=    1024KiB time=00:00:02.35 bitrate=3569.8kbits/s speed=0.0124x elapsed=0:03:09.20    \nframe=  144 fps=0.8 q=32.8 size=    1024KiB time=00:00:02.36 bitrate=3544.6kbits/s speed=0.0125x elapsed=0:03:09.77    \nframe=  145 fps=0.8 q=26.3 size=    1024KiB time=00:00:02.38 bitrate=3519.8kbits/s speed=0.0125x elapsed=0:03:10.35    \nframe=  146 fps=0.8 q=31.8 size=    1024KiB time=00:00:02.40 bitrate=3495.4kbits/s speed=0.0126x elapsed=0:03:10.91    \nframe=  146 fps=0.8 q=31.8 size=    1024KiB time=00:00:02.40 bitrate=3495.4kbits/s speed=0.0125x elapsed=0:03:11.45    \nframe=  147 fps=0.8 q=33.0 size=    1024KiB time=00:00:02.41 bitrate=3471.3kbits/s speed=0.0126x elapsed=0:03:11.97    \nframe=  147 fps=0.8 q=33.0 size=    1024KiB time=00:00:02.41 bitrate=3471.3kbits/s speed=0.0126x elapsed=0:03:12.52    \nframe=  147 fps=0.8 q=33.0 size=    1024KiB time=00:00:02.41 bitrate=3471.3kbits/s speed=0.0125x elapsed=0:03:13.02    \nframe=  147 fps=0.8 q=33.0 size=    1024KiB time=00:00:02.41 bitrate=3471.3kbits/s speed=0.0125x elapsed=0:03:13.55    \nframe=  147 fps=0.8 q=33.0 size=    1024KiB time=00:00:02.41 bitrate=3471.3kbits/s speed=0.0125x elapsed=0:03:14.06    \nframe=  147 fps=0.8 q=33.0 size=    1024KiB time=00:00:02.41 bitrate=3471.3kbits/s speed=0.0124x elapsed=0:03:14.57    \nframe=  147 fps=0.8 q=33.0 size=    1024KiB time=00:00:02.41 bitrate=3471.3kbits/s speed=0.0124x elapsed=0:03:15.09    \nframe=  148 fps=0.8 q=33.0 size=    1024KiB time=00:00:02.43 bitrate=3447.5kbits/s speed=0.0124x elapsed=0:03:15.63    \nframe=  148 fps=0.8 q=33.0 size=    1024KiB time=00:00:02.43 bitrate=3447.5kbits/s speed=0.0124x elapsed=0:03:16.18    \nframe=  150 fps=0.8 q=26.2 size=    1024KiB time=00:00:02.46 bitrate=3400.9kbits/s speed=0.0125x elapsed=0:03:16.74    \nframe=  150 fps=0.8 q=26.2 size=    1024KiB time=00:00:02.46 bitrate=3400.9kbits/s speed=0.0125x elapsed=0:03:17.27    \nframe=  151 fps=0.8 q=28.6 size=    1024KiB time=00:00:02.48 bitrate=3378.1kbits/s speed=0.0126x elapsed=0:03:17.80    \nframe=  151 fps=0.8 q=28.6 size=    1024KiB time=00:00:02.48 bitrate=3378.1kbits/s speed=0.0125x elapsed=0:03:18.32    \nframe=  151 fps=0.8 q=28.6 size=    1024KiB time=00:00:02.48 bitrate=3378.1kbits/s speed=0.0125x elapsed=0:03:18.90    \nframe=  152 fps=0.8 q=32.8 size=    1024KiB time=00:00:02.50 bitrate=3355.6kbits/s speed=0.0125x elapsed=0:03:19.42    \nframe=  152 fps=0.8 q=32.8 size=    1024KiB time=00:00:02.50 bitrate=3355.6kbits/s speed=0.0125x elapsed=0:03:19.94    \nframe=  152 fps=0.8 q=32.8 size=    1024KiB time=00:00:02.50 bitrate=3355.6kbits/s speed=0.0125x elapsed=0:03:20.48    \nframe=  152 fps=0.8 q=32.8 size=    1024KiB time=00:00:02.50 bitrate=3355.6kbits/s speed=0.0124x elapsed=0:03:21.00    \nframe=  152 fps=0.8 q=32.8 size=    1024KiB time=00:00:02.50 bitrate=3355.6kbits/s speed=0.0124x elapsed=0:03:21.52    \nframe=  152 fps=0.8 q=32.8 size=    1024KiB time=00:00:02.50 bitrate=3355.6kbits/s speed=0.0124x elapsed=0:03:22.04    \nframe=  153 fps=0.8 q=32.8 size=    1024KiB time=00:00:02.51 bitrate=3333.4kbits/s speed=0.0124x elapsed=0:03:22.55    \nframe=  154 fps=0.8 q=33.0 size=    1024KiB time=00:00:02.53 bitrate=3311.4kbits/s speed=0.0125x elapsed=0:03:23.06    \nframe=  154 fps=0.8 q=33.0 size=    1024KiB time=00:00:02.53 bitrate=3311.4kbits/s speed=0.0124x elapsed=0:03:23.57    \nframe=  155 fps=0.8 q=26.7 size=    1024KiB time=00:00:02.55 bitrate=3289.8kbits/s speed=0.0125x elapsed=0:03:24.10    \nframe=  157 fps=0.8 q=32.9 size=    1024KiB time=00:00:02.58 bitrate=3247.3kbits/s speed=0.0126x elapsed=0:03:24.64    \nframe=  157 fps=0.8 q=32.9 size=    1024KiB time=00:00:02.58 bitrate=3247.3kbits/s speed=0.0126x elapsed=0:03:25.16    \nframe=  157 fps=0.8 q=32.9 size=    1024KiB time=00:00:02.58 bitrate=3247.3kbits/s speed=0.0126x elapsed=0:03:25.71    \nframe=  157 fps=0.8 q=32.9 size=    1024KiB time=00:00:02.58 bitrate=3247.3kbits/s speed=0.0125x elapsed=0:03:26.28    \nframe=  157 fps=0.8 q=32.9 size=    1024KiB time=00:00:02.58 bitrate=3247.3kbits/s speed=0.0125x elapsed=0:03:26.81    \nframe=  158 fps=0.8 q=32.6 size=    1024KiB time=00:00:02.60 bitrate=3226.5kbits/s speed=0.0125x elapsed=0:03:27.32    \nframe=  159 fps=0.8 q=32.9 size=    1024KiB time=00:00:02.61 bitrate=3206.0kbits/s speed=0.0126x elapsed=0:03:27.85    \nframe=  160 fps=0.8 q=26.7 size=    1024KiB time=00:00:02.63 bitrate=3185.7kbits/s speed=0.0126x elapsed=0:03:28.40    \nframe=  161 fps=0.8 q=30.5 size=    1024KiB time=00:00:02.65 bitrate=3165.6kbits/s speed=0.0127x elapsed=0:03:28.93    \nframe=  162 fps=0.8 q=33.0 size=    1024KiB time=00:00:02.65 bitrate=3165.6kbits/s speed=0.0127x elapsed=0:03:29.45    \nframe=  162 fps=0.8 q=33.0 size=    1024KiB time=00:00:02.66 bitrate=3145.9kbits/s speed=0.0127x elapsed=0:03:29.98    \nframe=  162 fps=0.8 q=33.0 size=    1024KiB time=00:00:02.66 bitrate=3145.9kbits/s speed=0.0127x elapsed=0:03:30.51    \nframe=  162 fps=0.8 q=33.0 size=    1024KiB time=00:00:02.66 bitrate=3145.9kbits/s speed=0.0126x elapsed=0:03:31.04    \nframe=  163 fps=0.8 q=33.0 size=    1024KiB time=00:00:02.68 bitrate=3126.3kbits/s speed=0.0127x elapsed=0:03:31.56    \nframe=  164 fps=0.8 q=27.3 size=    1024KiB time=00:00:02.70 bitrate=3107.0kbits/s speed=0.0127x elapsed=0:03:32.08    \nframe=  165 fps=0.8 q=30.4 size=    1280KiB time=00:00:02.71 bitrate=3859.9kbits/s speed=0.0128x elapsed=0:03:32.61    \nframe=  165 fps=0.8 q=30.4 size=    1280KiB time=00:00:02.71 bitrate=3859.9kbits/s speed=0.0127x elapsed=0:03:33.15    \nframe=  165 fps=0.8 q=30.4 size=    1280KiB time=00:00:02.71 bitrate=3859.9kbits/s speed=0.0127x elapsed=0:03:33.72    \nframe=  165 fps=0.8 q=30.4 size=    1280KiB time=00:00:02.71 bitrate=3859.9kbits/s speed=0.0127x elapsed=0:03:34.26    \nframe=  166 fps=0.8 q=32.9 size=    1280KiB time=00:00:02.71 bitrate=3859.9kbits/s speed=0.0126x elapsed=0:03:34.77    \nframe=  166 fps=0.8 q=32.9 size=    1280KiB time=00:00:02.73 bitrate=3836.4kbits/s speed=0.0127x elapsed=0:03:35.41    \nframe=  166 fps=0.8 q=32.9 size=    1280KiB time=00:00:02.73 bitrate=3836.4kbits/s speed=0.0126x elapsed=0:03:36.11    \nframe=  166 fps=0.8 q=32.9 size=    1280KiB time=00:00:02.73 bitrate=3836.4kbits/s speed=0.0126x elapsed=0:03:36.69    \nframe=  166 fps=0.8 q=32.9 size=    1280KiB time=00:00:02.73 bitrate=3836.4kbits/s speed=0.0126x elapsed=0:03:37.23    \nframe=  166 fps=0.8 q=32.9 size=    1280KiB time=00:00:02.73 bitrate=3836.4kbits/s speed=0.0125x elapsed=0:03:37.87    \nframe=  167 fps=0.8 q=32.8 size=    1280KiB time=00:00:02.75 bitrate=3813.1kbits/s speed=0.0126x elapsed=0:03:38.44    \nframe=  167 fps=0.8 q=32.8 size=    1280KiB time=00:00:02.75 bitrate=3813.1kbits/s speed=0.0126x elapsed=0:03:39.01    \nframe=  167 fps=0.8 q=32.8 size=    1280KiB time=00:00:02.75 bitrate=3813.1kbits/s speed=0.0125x elapsed=0:03:39.54    \nframe=  168 fps=0.8 q=27.3 size=    1280KiB time=00:00:02.76 bitrate=3790.2kbits/s speed=0.0126x elapsed=0:03:40.17    \nframe=  168 fps=0.8 q=27.3 size=    1280KiB time=00:00:02.76 bitrate=3790.2kbits/s speed=0.0125x elapsed=0:03:40.72    \nframe=  168 fps=0.8 q=27.3 size=    1280KiB time=00:00:02.76 bitrate=3790.2kbits/s speed=0.0125x elapsed=0:03:41.27    \nframe=  168 fps=0.8 q=27.3 size=    1280KiB time=00:00:02.76 bitrate=3790.2kbits/s speed=0.0125x elapsed=0:03:41.82    \nframe=  168 fps=0.8 q=27.3 size=    1280KiB time=00:00:02.76 bitrate=3790.2kbits/s speed=0.0124x elapsed=0:03:42.41    \nframe=  168 fps=0.8 q=27.3 size=    1280KiB time=00:00:02.76 bitrate=3790.2kbits/s speed=0.0124x elapsed=0:03:42.93    \nframe=  169 fps=0.8 q=33.0 size=    1280KiB time=00:00:02.78 bitrate=3767.5kbits/s speed=0.0125x elapsed=0:03:43.47    \nframe=  170 fps=0.8 q=27.4 size=    1280KiB time=00:00:02.80 bitrate=3745.0kbits/s speed=0.0125x elapsed=0:03:44.00    \nframe=  170 fps=0.8 q=27.4 size=    1280KiB time=00:00:02.80 bitrate=3745.0kbits/s speed=0.0125x elapsed=0:03:44.55    \nframe=  171 fps=0.8 q=29.9 size=    1280KiB time=00:00:02.81 bitrate=3722.9kbits/s speed=0.0125x elapsed=0:03:45.07    \nframe=  171 fps=0.8 q=29.9 size=    1280KiB time=00:00:02.81 bitrate=3722.9kbits/s speed=0.0125x elapsed=0:03:45.62    \nframe=  171 fps=0.8 q=29.9 size=    1280KiB time=00:00:02.81 bitrate=3722.9kbits/s speed=0.0125x elapsed=0:03:46.19    \nframe=  171 fps=0.8 q=29.9 size=    1280KiB time=00:00:02.81 bitrate=3722.9kbits/s speed=0.0124x elapsed=0:03:46.73    \nframe=  172 fps=0.8 q=32.5 size=    1280KiB time=00:00:02.83 bitrate=3701.0kbits/s speed=0.0125x elapsed=0:03:47.25    \nframe=  173 fps=0.8 q=32.9 size=    1280KiB time=00:00:02.85 bitrate=3679.3kbits/s speed=0.0125x elapsed=0:03:47.78    \nframe=  174 fps=0.8 q=27.5 size=    1280KiB time=00:00:02.86 bitrate=3657.9kbits/s speed=0.0126x elapsed=0:03:48.29    \nframe=  175 fps=0.8 q=30.4 size=    1280KiB time=00:00:02.88 bitrate=3636.8kbits/s speed=0.0126x elapsed=0:03:48.81    \nframe=  175 fps=0.8 q=30.4 size=    1280KiB time=00:00:02.88 bitrate=3636.8kbits/s speed=0.0126x elapsed=0:03:49.44    \nframe=  175 fps=0.8 q=30.4 size=    1280KiB time=00:00:02.88 bitrate=3636.8kbits/s speed=0.0125x elapsed=0:03:49.97    \nframe=  175 fps=0.8 q=30.4 size=    1280KiB time=00:00:02.88 bitrate=3636.8kbits/s speed=0.0125x elapsed=0:03:50.48    \nframe=  175 fps=0.8 q=30.4 size=    1280KiB time=00:00:02.88 bitrate=3636.8kbits/s speed=0.0125x elapsed=0:03:51.02    \nframe=  176 fps=0.8 q=32.7 size=    1280KiB time=00:00:02.90 bitrate=3615.9kbits/s speed=0.0125x elapsed=0:03:51.54    \nframe=  176 fps=0.8 q=32.7 size=    1280KiB time=00:00:02.90 bitrate=3615.9kbits/s speed=0.0125x elapsed=0:03:52.10    \nframe=  177 fps=0.8 q=33.8 size=    1280KiB time=00:00:02.91 bitrate=3595.2kbits/s speed=0.0125x elapsed=0:03:52.62    \nframe=  177 fps=0.8 q=33.8 size=    1280KiB time=00:00:02.91 bitrate=3595.2kbits/s speed=0.0125x elapsed=0:03:53.17    \nframe=  178 fps=0.8 q=27.7 size=    1280KiB time=00:00:02.93 bitrate=3574.8kbits/s speed=0.0126x elapsed=0:03:53.71    \nframe=  178 fps=0.8 q=27.7 size=    1280KiB time=00:00:02.93 bitrate=3574.8kbits/s speed=0.0125x elapsed=0:03:54.26    \nframe=  178 fps=0.8 q=27.7 size=    1280KiB time=00:00:02.93 bitrate=3574.8kbits/s speed=0.0125x elapsed=0:03:54.78    \nframe=  179 fps=0.8 q=32.0 size=    1280KiB time=00:00:02.95 bitrate=3554.6kbits/s speed=0.0125x elapsed=0:03:55.32    \nframe=  180 fps=0.8 q=33.4 size=    1280KiB time=00:00:02.96 bitrate=3534.6kbits/s speed=0.0126x elapsed=0:03:55.85    \nframe=  181 fps=0.8 q=28.2 size=    1280KiB time=00:00:02.98 bitrate=3514.9kbits/s speed=0.0126x elapsed=0:03:56.40    \nframe=  181 fps=0.8 q=28.2 size=    1280KiB time=00:00:02.98 bitrate=3514.9kbits/s speed=0.0126x elapsed=0:03:56.95    \nframe=  181 fps=0.8 q=28.2 size=    1280KiB time=00:00:02.98 bitrate=3514.9kbits/s speed=0.0126x elapsed=0:03:57.54    \nframe=  181 fps=0.8 q=28.2 size=    1280KiB time=00:00:02.98 bitrate=3514.9kbits/s speed=0.0125x elapsed=0:03:58.08    \nframe=  181 fps=0.8 q=28.2 size=    1280KiB time=00:00:02.98 bitrate=3514.9kbits/s speed=0.0125x elapsed=0:03:58.62    \nframe=  182 fps=0.8 q=32.8 size=    1280KiB time=00:00:03.00 bitrate=3495.4kbits/s speed=0.0125x elapsed=0:03:59.12    \nframe=  182 fps=0.8 q=32.8 size=    1280KiB time=00:00:03.00 bitrate=3495.4kbits/s speed=0.0125x elapsed=0:03:59.64    \nframe=  183 fps=0.8 q=33.9 size=    1280KiB time=00:00:03.00 bitrate=3495.4kbits/s speed=0.0125x elapsed=0:04:00.17    \nframe=  183 fps=0.8 q=33.9 size=    1280KiB time=00:00:03.01 bitrate=3476.1kbits/s speed=0.0125x elapsed=0:04:00.70    \nframe=  184 fps=0.8 q=27.5 size=    1280KiB time=00:00:03.03 bitrate=3457.0kbits/s speed=0.0126x elapsed=0:04:01.23    \nframe=  184 fps=0.8 q=27.5 size=    1280KiB time=00:00:03.03 bitrate=3457.0kbits/s speed=0.0125x elapsed=0:04:01.74    \nframe=  184 fps=0.8 q=27.5 size=    1280KiB time=00:00:03.03 bitrate=3457.0kbits/s speed=0.0125x elapsed=0:04:02.30    \nframe=  185 fps=0.8 q=31.1 size=    1280KiB time=00:00:03.05 bitrate=3438.1kbits/s speed=0.0126x elapsed=0:04:02.82    \nframe=  185 fps=0.8 q=31.1 size=    1280KiB time=00:00:03.05 bitrate=3438.1kbits/s speed=0.0125x elapsed=0:04:03.34    \nframe=  185 fps=0.8 q=31.1 size=    1280KiB time=00:00:03.05 bitrate=3438.1kbits/s speed=0.0125x elapsed=0:04:03.86    \nframe=  186 fps=0.8 q=33.8 size=    1280KiB time=00:00:03.06 bitrate=3419.4kbits/s speed=0.0125x elapsed=0:04:04.38    \nframe=  187 fps=0.8 q=33.5 size=    1280KiB time=00:00:03.08 bitrate=3400.9kbits/s speed=0.0126x elapsed=0:04:04.90    \nframe=  188 fps=0.8 q=28.7 size=    1280KiB time=00:00:03.10 bitrate=3382.6kbits/s speed=0.0126x elapsed=0:04:05.41    \nframe=  189 fps=0.8 q=33.3 size=    1536KiB time=00:00:03.11 bitrate=4037.4kbits/s speed=0.0127x elapsed=0:04:05.93    \nframe=  189 fps=0.8 q=33.3 size=    1536KiB time=00:00:03.11 bitrate=4037.4kbits/s speed=0.0126x elapsed=0:04:06.45    \nframe=  189 fps=0.8 q=33.3 size=    1536KiB time=00:00:03.11 bitrate=4037.4kbits/s speed=0.0126x elapsed=0:04:07.05    \nframe=  189 fps=0.8 q=33.3 size=    1536KiB time=00:00:03.11 bitrate=4037.4kbits/s speed=0.0126x elapsed=0:04:07.59    \nframe=  189 fps=0.8 q=33.3 size=    1536KiB time=00:00:03.11 bitrate=4037.4kbits/s speed=0.0126x elapsed=0:04:08.12    \nframe=  189 fps=0.8 q=33.3 size=    1536KiB time=00:00:03.11 bitrate=4037.4kbits/s speed=0.0125x elapsed=0:04:08.66    \nframe=  190 fps=0.8 q=33.8 size=    1536KiB time=00:00:03.13 bitrate=4015.9kbits/s speed=0.0126x elapsed=0:04:09.19    \nframe=  190 fps=0.8 q=33.8 size=    1536KiB time=00:00:03.13 bitrate=4015.9kbits/s speed=0.0125x elapsed=0:04:09.70    \nframe=  190 fps=0.8 q=33.8 size=    1536KiB time=00:00:03.13 bitrate=4015.9kbits/s speed=0.0125x elapsed=0:04:10.24    \nframe=  191 fps=0.8 q=34.8 size=    1536KiB time=00:00:03.15 bitrate=3994.7kbits/s speed=0.0126x elapsed=0:04:10.75    \nframe=  191 fps=0.8 q=34.8 size=    1536KiB time=00:00:03.15 bitrate=3994.7kbits/s speed=0.0125x elapsed=0:04:11.30    \nframe=  191 fps=0.8 q=34.8 size=    1536KiB time=00:00:03.15 bitrate=3994.7kbits/s speed=0.0125x elapsed=0:04:11.83    \nframe=  192 fps=0.8 q=28.3 size=    1536KiB time=00:00:03.16 bitrate=3973.7kbits/s speed=0.0125x elapsed=0:04:12.34    \nframe=  193 fps=0.8 q=31.3 size=    1536KiB time=00:00:03.18 bitrate=3952.9kbits/s speed=0.0126x elapsed=0:04:12.87    \nframe=  193 fps=0.8 q=31.3 size=    1536KiB time=00:00:03.18 bitrate=3952.9kbits/s speed=0.0126x elapsed=0:04:13.41    \nframe=  193 fps=0.8 q=31.3 size=    1536KiB time=00:00:03.18 bitrate=3952.9kbits/s speed=0.0125x elapsed=0:04:13.92    \nframe=  193 fps=0.8 q=31.3 size=    1536KiB time=00:00:03.18 bitrate=3952.9kbits/s speed=0.0125x elapsed=0:04:14.44    \nframe=  193 fps=0.8 q=31.3 size=    1536KiB time=00:00:03.18 bitrate=3952.9kbits/s speed=0.0125x elapsed=0:04:14.97    \nframe=  194 fps=0.8 q=34.2 size=    1536KiB time=00:00:03.20 bitrate=3932.3kbits/s speed=0.0125x elapsed=0:04:15.49    \nframe=  194 fps=0.8 q=34.2 size=    1536KiB time=00:00:03.20 bitrate=3932.3kbits/s speed=0.0125x elapsed=0:04:16.03    \nframe=  194 fps=0.8 q=34.2 size=    1536KiB time=00:00:03.20 bitrate=3932.3kbits/s speed=0.0125x elapsed=0:04:16.55    \nframe=  195 fps=0.8 q=34.8 size=    1536KiB time=00:00:03.21 bitrate=3911.9kbits/s speed=0.0125x elapsed=0:04:17.06    \nframe=  195 fps=0.8 q=34.8 size=    1536KiB time=00:00:03.21 bitrate=3911.9kbits/s speed=0.0125x elapsed=0:04:17.59    \nframe=  195 fps=0.8 q=34.8 size=    1536KiB time=00:00:03.21 bitrate=3911.9kbits/s speed=0.0125x elapsed=0:04:18.12    \nframe=  196 fps=0.8 q=27.6 size=    1536KiB time=00:00:03.23 bitrate=3891.7kbits/s speed=0.0125x elapsed=0:04:18.64    \nframe=  196 fps=0.8 q=27.6 size=    1536KiB time=00:00:03.23 bitrate=3891.7kbits/s speed=0.0125x elapsed=0:04:19.17    \nframe=  197 fps=0.8 q=31.6 size=    1536KiB time=00:00:03.25 bitrate=3871.8kbits/s speed=0.0125x elapsed=0:04:19.69    \nframe=  197 fps=0.8 q=31.6 size=    1536KiB time=00:00:03.25 bitrate=3871.8kbits/s speed=0.0125x elapsed=0:04:20.22    \nframe=  197 fps=0.8 q=31.6 size=    1536KiB time=00:00:03.25 bitrate=3871.8kbits/s speed=0.0125x elapsed=0:04:20.74    \nframe=  198 fps=0.8 q=34.8 size=    1536KiB time=00:00:03.26 bitrate=3852.0kbits/s speed=0.0125x elapsed=0:04:21.24    \nframe=  198 fps=0.8 q=34.8 size=    1536KiB time=00:00:03.26 bitrate=3852.0kbits/s speed=0.0125x elapsed=0:04:21.77    \nframe=  198 fps=0.8 q=34.8 size=    1536KiB time=00:00:03.26 bitrate=3852.0kbits/s speed=0.0125x elapsed=0:04:22.29    \nframe=  199 fps=0.8 q=34.7 size=    1536KiB time=00:00:03.28 bitrate=3832.5kbits/s speed=0.0125x elapsed=0:04:22.81    \nframe=  200 fps=0.8 q=27.0 size=    1536KiB time=00:00:03.30 bitrate=3813.1kbits/s speed=0.0125x elapsed=0:04:23.33    \nframe=  200 fps=0.8 q=27.0 size=    1536KiB time=00:00:03.30 bitrate=3813.1kbits/s speed=0.0125x elapsed=0:04:23.85    \nframe=  201 fps=0.8 q=29.4 size=    1536KiB time=00:00:03.31 bitrate=3793.9kbits/s speed=0.0125x elapsed=0:04:24.39    \nframe=  202 fps=0.8 q=34.9 size=    1536KiB time=00:00:03.33 bitrate=3775.0kbits/s speed=0.0126x elapsed=0:04:24.91    \nframe=  202 fps=0.8 q=34.9 size=    1536KiB time=00:00:03.33 bitrate=3775.0kbits/s speed=0.0126x elapsed=0:04:25.42    \nframe=  202 fps=0.8 q=34.9 size=    1536KiB time=00:00:03.33 bitrate=3775.0kbits/s speed=0.0125x elapsed=0:04:25.95    \nframe=  203 fps=0.8 q=27.5 size=    1536KiB time=00:00:03.35 bitrate=3756.2kbits/s speed=0.0126x elapsed=0:04:26.47    \nframe=  205 fps=0.8 q=34.5 size=    1536KiB time=00:00:03.38 bitrate=3719.2kbits/s speed=0.0127x elapsed=0:04:27.00    \nframe=  205 fps=0.8 q=34.5 size=    1536KiB time=00:00:03.38 bitrate=3719.2kbits/s speed=0.0126x elapsed=0:04:27.52    \nframe=  206 fps=0.8 q=36.0 size=    1536KiB time=00:00:03.40 bitrate=3701.0kbits/s speed=0.0127x elapsed=0:04:28.02    \nframe=  207 fps=0.8 q=35.7 size=    1536KiB time=00:00:03.41 bitrate=3682.9kbits/s speed=0.0127x elapsed=0:04:28.55    \nframe=  207 fps=0.8 q=35.7 size=    1536KiB time=00:00:03.41 bitrate=3682.9kbits/s speed=0.0127x elapsed=0:04:29.06    \nframe=  208 fps=0.8 q=27.9 size=    1536KiB time=00:00:03.43 bitrate=3665.0kbits/s speed=0.0127x elapsed=0:04:29.59    \nframe=  208 fps=0.8 q=27.9 size=    1536KiB time=00:00:03.43 bitrate=3665.0kbits/s speed=0.0127x elapsed=0:04:30.14    \nframe=  208 fps=0.8 q=27.9 size=    1536KiB time=00:00:03.43 bitrate=3665.0kbits/s speed=0.0127x elapsed=0:04:30.72    \nframe=  209 fps=0.8 q=32.8 size=    1536KiB time=00:00:03.45 bitrate=3647.3kbits/s speed=0.0127x elapsed=0:04:31.28    \nframe=  209 fps=0.8 q=32.8 size=    1536KiB time=00:00:03.45 bitrate=3647.3kbits/s speed=0.0127x elapsed=0:04:31.79    \nframe=  209 fps=0.8 q=32.8 size=    1536KiB time=00:00:03.45 bitrate=3647.3kbits/s speed=0.0127x elapsed=0:04:32.33    \nframe=  209 fps=0.8 q=32.8 size=    1536KiB time=00:00:03.45 bitrate=3647.3kbits/s speed=0.0126x elapsed=0:04:32.84    \nframe=  210 fps=0.8 q=35.0 size=    1536KiB time=00:00:03.46 bitrate=3629.8kbits/s speed=0.0127x elapsed=0:04:33.36    \nframe=  210 fps=0.8 q=35.0 size=    1536KiB time=00:00:03.46 bitrate=3629.8kbits/s speed=0.0127x elapsed=0:04:33.87    \nframe=  211 fps=0.8 q=35.0 size=    1536KiB time=00:00:03.48 bitrate=3612.4kbits/s speed=0.0127x elapsed=0:04:34.39    \nframe=  212 fps=0.8 q=27.9 size=    1536KiB time=00:00:03.50 bitrate=3595.2kbits/s speed=0.0127x elapsed=0:04:34.91    \nframe=  213 fps=0.8 q=31.8 size=    1536KiB time=00:00:03.51 bitrate=3578.2kbits/s speed=0.0128x elapsed=0:04:35.43    \nframe=  213 fps=0.8 q=31.8 size=    1536KiB time=00:00:03.51 bitrate=3578.2kbits/s speed=0.0127x elapsed=0:04:35.93    \nframe=  214 fps=0.8 q=34.9 size=    1536KiB time=00:00:03.53 bitrate=3561.3kbits/s speed=0.0128x elapsed=0:04:36.46    \nframe=  215 fps=0.8 q=34.9 size=    1536KiB time=00:00:03.55 bitrate=3544.6kbits/s speed=0.0128x elapsed=0:04:36.96    \nframe=  216 fps=0.8 q=27.7 size=    1536KiB time=00:00:03.56 bitrate=3528.0kbits/s speed=0.0129x elapsed=0:04:37.48    \nframe=  217 fps=0.8 q=31.1 size=    1792KiB time=00:00:03.58 bitrate=4096.9kbits/s speed=0.0129x elapsed=0:04:38.00    \nframe=  217 fps=0.8 q=31.1 size=    1792KiB time=00:00:03.58 bitrate=4096.9kbits/s speed=0.0129x elapsed=0:04:38.52    \nframe=  217 fps=0.8 q=31.1 size=    1792KiB time=00:00:03.58 bitrate=4096.9kbits/s speed=0.0128x elapsed=0:04:39.03    \nframe=  218 fps=0.8 q=33.8 size=    1792KiB time=00:00:03.60 bitrate=4077.9kbits/s speed=0.0129x elapsed=0:04:39.54    \nframe=  219 fps=0.8 q=34.8 size=    1792KiB time=00:00:03.61 bitrate=4059.1kbits/s speed=0.0129x elapsed=0:04:40.10    \nframe=  219 fps=0.8 q=34.8 size=    1792KiB time=00:00:03.61 bitrate=4059.1kbits/s speed=0.0129x elapsed=0:04:40.61    \nframe=  219 fps=0.8 q=34.8 size=    1792KiB time=00:00:03.61 bitrate=4059.1kbits/s speed=0.0129x elapsed=0:04:41.12    \nframe=  220 fps=0.8 q=27.4 size=    1792KiB time=00:00:03.63 bitrate=4040.5kbits/s speed=0.0129x elapsed=0:04:41.64    \nframe=  220 fps=0.8 q=27.4 size=    1792KiB time=00:00:03.63 bitrate=4040.5kbits/s speed=0.0129x elapsed=0:04:42.17    \nframe=  221 fps=0.8 q=31.7 size=    1792KiB time=00:00:03.65 bitrate=4022.0kbits/s speed=0.0129x elapsed=0:04:42.71    \nframe=  221 fps=0.8 q=31.7 size=    1792KiB time=00:00:03.65 bitrate=4022.0kbits/s speed=0.0129x elapsed=0:04:43.24    \nframe=  221 fps=0.8 q=31.7 size=    1792KiB time=00:00:03.65 bitrate=4022.0kbits/s speed=0.0129x elapsed=0:04:43.77    \nframe=  221 fps=0.8 q=31.7 size=    1792KiB time=00:00:03.65 bitrate=4022.0kbits/s speed=0.0128x elapsed=0:04:44.29    \nframe=  222 fps=0.8 q=34.9 size=    1792KiB time=00:00:03.66 bitrate=4003.7kbits/s speed=0.0129x elapsed=0:04:44.79    \nframe=  222 fps=0.8 q=34.9 size=    1792KiB time=00:00:03.66 bitrate=4003.7kbits/s speed=0.0129x elapsed=0:04:45.31    \nframe=  223 fps=0.8 q=34.9 size=    1792KiB time=00:00:03.68 bitrate=3985.6kbits/s speed=0.0129x elapsed=0:04:45.84    \nframe=  224 fps=0.8 q=27.1 size=    1792KiB time=00:00:03.70 bitrate=3967.7kbits/s speed=0.0129x elapsed=0:04:46.36    \nframe=  224 fps=0.8 q=27.1 size=    1792KiB time=00:00:03.70 bitrate=3967.7kbits/s speed=0.0129x elapsed=0:04:46.89    \nframe=  224 fps=0.8 q=27.1 size=    1792KiB time=00:00:03.70 bitrate=3967.7kbits/s speed=0.0129x elapsed=0:04:47.41    \nframe=  224 fps=0.8 q=27.1 size=    1792KiB time=00:00:03.70 bitrate=3967.7kbits/s speed=0.0129x elapsed=0:04:47.92    \nframe=  225 fps=0.8 q=31.5 size=    1792KiB time=00:00:03.71 bitrate=3949.9kbits/s speed=0.0129x elapsed=0:04:48.45    \nframe=  226 fps=0.8 q=34.9 size=    1792KiB time=00:00:03.73 bitrate=3932.3kbits/s speed=0.0129x elapsed=0:04:48.98    \nframe=  226 fps=0.8 q=34.9 size=    1792KiB time=00:00:03.73 bitrate=3932.3kbits/s speed=0.0129x elapsed=0:04:49.52    \nframe=  226 fps=0.8 q=34.9 size=    1792KiB time=00:00:03.73 bitrate=3932.3kbits/s speed=0.0129x elapsed=0:04:50.05    \nframe=  227 fps=0.8 q=27.6 size=    1792KiB time=00:00:03.75 bitrate=3914.8kbits/s speed=0.0129x elapsed=0:04:50.58    \nframe=  228 fps=0.8 q=29.1 size=    1792KiB time=00:00:03.76 bitrate=3897.5kbits/s speed=0.0129x elapsed=0:04:51.13    \nframe=  229 fps=0.8 q=35.8 size=    1792KiB time=00:00:03.78 bitrate=3880.3kbits/s speed=0.013x elapsed=0:04:51.64    \nframe=  229 fps=0.8 q=35.8 size=    1792KiB time=00:00:03.78 bitrate=3880.3kbits/s speed=0.0129x elapsed=0:04:52.19    \nframe=  229 fps=0.8 q=35.8 size=    1792KiB time=00:00:03.78 bitrate=3880.3kbits/s speed=0.0129x elapsed=0:04:52.70    \nframe=  230 fps=0.8 q=35.8 size=    1792KiB time=00:00:03.80 bitrate=3863.3kbits/s speed=0.013x elapsed=0:04:53.23    \nframe=  230 fps=0.8 q=35.8 size=    1792KiB time=00:00:03.80 bitrate=3863.3kbits/s speed=0.0129x elapsed=0:04:53.76    \nframe=  230 fps=0.8 q=35.8 size=    1792KiB time=00:00:03.80 bitrate=3863.3kbits/s speed=0.0129x elapsed=0:04:54.29    \nframe=  230 fps=0.8 q=35.8 size=    1792KiB time=00:00:03.80 bitrate=3863.3kbits/s speed=0.0129x elapsed=0:04:54.82    \nframe=  232 fps=0.8 q=27.3 size=    1792KiB time=00:00:03.83 bitrate=3829.7kbits/s speed=0.013x elapsed=0:04:55.35    \nframe=  232 fps=0.8 q=27.3 size=    1792KiB time=00:00:03.83 bitrate=3829.7kbits/s speed=0.013x elapsed=0:04:55.86    \nframe=  232 fps=0.8 q=27.3 size=    1792KiB time=00:00:03.83 bitrate=3829.7kbits/s speed=0.0129x elapsed=0:04:56.38    \nframe=  232 fps=0.8 q=27.3 size=    1792KiB time=00:00:03.83 bitrate=3829.7kbits/s speed=0.0129x elapsed=0:04:56.91    \nframe=  233 fps=0.8 q=31.7 size=    1792KiB time=00:00:03.85 bitrate=3813.1kbits/s speed=0.0129x elapsed=0:04:57.43    \nframe=  233 fps=0.8 q=31.7 size=    1792KiB time=00:00:03.85 bitrate=3813.1kbits/s speed=0.0129x elapsed=0:04:57.95    \nframe=  233 fps=0.8 q=31.7 size=    1792KiB time=00:00:03.85 bitrate=3813.1kbits/s speed=0.0129x elapsed=0:04:58.47    \nframe=  235 fps=0.8 q=27.5 size=    1792KiB time=00:00:03.88 bitrate=3780.4kbits/s speed=0.013x elapsed=0:04:58.99    \nframe=  235 fps=0.8 q=27.5 size=    1792KiB time=00:00:03.88 bitrate=3780.4kbits/s speed=0.013x elapsed=0:04:59.50    \nframe=  236 fps=0.8 q=32.7 size=    1792KiB time=00:00:03.90 bitrate=3764.2kbits/s speed=0.013x elapsed=0:05:00.02    \nframe=  236 fps=0.8 q=32.7 size=    1792KiB time=00:00:03.90 bitrate=3764.2kbits/s speed=0.013x elapsed=0:05:00.52    \nframe=  236 fps=0.8 q=32.7 size=    1792KiB time=00:00:03.90 bitrate=3764.2kbits/s speed=0.013x elapsed=0:05:01.05    \nframe=  237 fps=0.8 q=34.8 size=    1792KiB time=00:00:03.91 bitrate=3748.2kbits/s speed=0.013x elapsed=0:05:01.58    \nframe=  238 fps=0.8 q=27.6 size=    1792KiB time=00:00:03.93 bitrate=3732.3kbits/s speed=0.013x elapsed=0:05:02.09    \nframe=  238 fps=0.8 q=27.6 size=    1792KiB time=00:00:03.93 bitrate=3732.3kbits/s speed=0.013x elapsed=0:05:02.61    \nframe=  238 fps=0.8 q=27.6 size=    1792KiB time=00:00:03.93 bitrate=3732.3kbits/s speed=0.013x elapsed=0:05:03.13    \nframe=  239 fps=0.8 q=31.0 size=    1792KiB time=00:00:03.95 bitrate=3716.6kbits/s speed=0.013x elapsed=0:05:03.64    \nframe=  240 fps=0.8 q=34.7 size=    1792KiB time=00:00:03.96 bitrate=3700.9kbits/s speed=0.013x elapsed=0:05:04.17    \nframe=  240 fps=0.8 q=34.7 size=    1792KiB time=00:00:03.96 bitrate=3700.9kbits/s speed=0.013x elapsed=0:05:04.70    \nframe=  240 fps=0.8 q=34.7 size=    1792KiB time=00:00:03.96 bitrate=3700.9kbits/s speed=0.013x elapsed=0:05:05.23    \nframe=  240 fps=0.8 q=34.7 size=    1792KiB time=00:00:03.96 bitrate=3700.9kbits/s speed=0.013x elapsed=0:05:05.75    \nframe=  241 fps=0.8 q=27.7 size=    1792KiB time=00:00:03.98 bitrate=3685.5kbits/s speed=0.013x elapsed=0:05:06.27    \nframe=  242 fps=0.8 q=31.4 size=    1792KiB time=00:00:04.00 bitrate=3670.1kbits/s speed=0.013x elapsed=0:05:06.80    \nframe=  242 fps=0.8 q=31.4 size=    1792KiB time=00:00:04.00 bitrate=3670.1kbits/s speed=0.013x elapsed=0:05:07.35    \nframe=  242 fps=0.8 q=31.4 size=    1792KiB time=00:00:04.00 bitrate=3670.1kbits/s speed=0.013x elapsed=0:05:07.92    \nframe=  242 fps=0.8 q=31.4 size=    1792KiB time=00:00:04.00 bitrate=3670.1kbits/s speed=0.013x elapsed=0:05:08.46    \nframe=  243 fps=0.8 q=34.6 size=    1792KiB time=00:00:04.01 bitrate=3654.9kbits/s speed=0.013x elapsed=0:05:08.99    \nframe=  243 fps=0.8 q=34.6 size=    1792KiB time=00:00:04.01 bitrate=3654.9kbits/s speed=0.013x elapsed=0:05:09.58    \nframe=  243 fps=0.8 q=34.6 size=    1792KiB time=00:00:04.01 bitrate=3654.9kbits/s speed=0.0129x elapsed=0:05:10.21    \nframe=  243 fps=0.8 q=34.6 size=    1792KiB time=00:00:04.01 bitrate=3654.9kbits/s speed=0.0129x elapsed=0:05:10.81    \nframe=  243 fps=0.8 q=34.6 size=    1792KiB time=00:00:04.01 bitrate=3654.9kbits/s speed=0.0129x elapsed=0:05:11.35    \nframe=  243 fps=0.8 q=34.6 size=    1792KiB time=00:00:04.01 bitrate=3654.9kbits/s speed=0.0129x elapsed=0:05:11.92    \nframe=  243 fps=0.8 q=34.6 size=    1792KiB time=00:00:04.01 bitrate=3654.9kbits/s speed=0.0129x elapsed=0:05:12.50    \nframe=  243 fps=0.8 q=34.6 size=    1792KiB time=00:00:04.01 bitrate=3654.9kbits/s speed=0.0128x elapsed=0:05:13.05    \nframe=  243 fps=0.8 q=34.6 size=    1792KiB time=00:00:04.01 bitrate=3654.9kbits/s speed=0.0128x elapsed=0:05:13.57    \nframe=  244 fps=0.8 q=27.7 size=    1792KiB time=00:00:04.03 bitrate=3639.8kbits/s speed=0.0128x elapsed=0:05:14.09    \nframe=  245 fps=0.8 q=33.4 size=    1792KiB time=00:00:04.05 bitrate=3624.8kbits/s speed=0.0129x elapsed=0:05:14.60    \nframe=  245 fps=0.8 q=33.4 size=    1792KiB time=00:00:04.05 bitrate=3624.8kbits/s speed=0.0129x elapsed=0:05:15.12    \nframe=  246 fps=0.8 q=35.0 size=    1792KiB time=00:00:04.06 bitrate=3609.9kbits/s speed=0.0129x elapsed=0:05:15.64    \nframe=  246 fps=0.8 q=35.0 size=    1792KiB time=00:00:04.06 bitrate=3609.9kbits/s speed=0.0129x elapsed=0:05:16.16    \nframe=  247 fps=0.8 q=34.8 size=    1792KiB time=00:00:04.08 bitrate=3595.2kbits/s speed=0.0129x elapsed=0:05:16.67    \nframe=  247 fps=0.8 q=34.8 size=    1792KiB time=00:00:04.08 bitrate=3595.2kbits/s speed=0.0129x elapsed=0:05:17.18    \nframe=  248 fps=0.8 q=27.7 size=    1792KiB time=00:00:04.10 bitrate=3580.6kbits/s speed=0.0129x elapsed=0:05:17.70    \nframe=  248 fps=0.8 q=27.7 size=    1792KiB time=00:00:04.10 bitrate=3580.6kbits/s speed=0.0129x elapsed=0:05:18.23    \nframe=  248 fps=0.8 q=27.7 size=    1792KiB time=00:00:04.10 bitrate=3580.6kbits/s speed=0.0129x elapsed=0:05:18.76    \nframe=  249 fps=0.8 q=34.0 size=    2048KiB time=00:00:04.11 bitrate=4075.5kbits/s speed=0.0129x elapsed=0:05:19.29    \nframe=  249 fps=0.8 q=34.0 size=    2048KiB time=00:00:04.11 bitrate=4075.5kbits/s speed=0.0129x elapsed=0:05:19.82    \nframe=  249 fps=0.8 q=34.0 size=    2048KiB time=00:00:04.11 bitrate=4075.5kbits/s speed=0.0129x elapsed=0:05:20.35    \nframe=  250 fps=0.8 q=35.9 size=    2048KiB time=00:00:04.13 bitrate=4059.1kbits/s speed=0.0129x elapsed=0:05:20.87    \nframe=  250 fps=0.8 q=35.9 size=    2048KiB time=00:00:04.13 bitrate=4059.1kbits/s speed=0.0129x elapsed=0:05:21.40    \nframe=  251 fps=0.8 q=26.6 size=    2048KiB time=00:00:04.15 bitrate=4042.8kbits/s speed=0.0129x elapsed=0:05:21.92    \nframe=  251 fps=0.8 q=26.6 size=    2048KiB time=00:00:04.15 bitrate=4042.8kbits/s speed=0.0129x elapsed=0:05:22.44    \nframe=  251 fps=0.8 q=26.6 size=    2048KiB time=00:00:04.15 bitrate=4042.8kbits/s speed=0.0128x elapsed=0:05:22.95    \nframe=  252 fps=0.8 q=27.5 size=    2048KiB time=00:00:04.16 bitrate=4026.6kbits/s speed=0.0129x elapsed=0:05:23.48    \nframe=  252 fps=0.8 q=27.5 size=    2048KiB time=00:00:04.16 bitrate=4026.6kbits/s speed=0.0129x elapsed=0:05:24.00    \nframe=  252 fps=0.8 q=27.5 size=    2048KiB time=00:00:04.16 bitrate=4026.6kbits/s speed=0.0128x elapsed=0:05:24.52    \nframe=  253 fps=0.8 q=34.1 size=    2048KiB time=00:00:04.18 bitrate=4010.6kbits/s speed=0.0129x elapsed=0:05:25.07    \nframe=  253 fps=0.8 q=34.1 size=    2048KiB time=00:00:04.18 bitrate=4010.6kbits/s speed=0.0128x elapsed=0:05:25.61    \nframe=  254 fps=0.8 q=35.8 size=    2048KiB time=00:00:04.20 bitrate=3994.7kbits/s speed=0.0129x elapsed=0:05:26.16    \nframe=  254 fps=0.8 q=35.8 size=    2048KiB time=00:00:04.20 bitrate=3994.7kbits/s speed=0.0129x elapsed=0:05:26.70    \nframe=  254 fps=0.8 q=35.8 size=    2048KiB time=00:00:04.20 bitrate=3994.7kbits/s speed=0.0128x elapsed=0:05:27.31    \nframe=  254 fps=0.8 q=35.8 size=    2048KiB time=00:00:04.20 bitrate=3994.7kbits/s speed=0.0128x elapsed=0:05:27.90    \nframe=  254 fps=0.8 q=35.8 size=    2048KiB time=00:00:04.20 bitrate=3994.7kbits/s speed=0.0128x elapsed=0:05:28.50    \nframe=  254 fps=0.8 q=35.8 size=    2048KiB time=00:00:04.20 bitrate=3994.7kbits/s speed=0.0128x elapsed=0:05:29.05    \nframe=  255 fps=0.8 q=27.1 size=    2048KiB time=00:00:04.21 bitrate=3978.9kbits/s speed=0.0128x elapsed=0:05:29.61    \nframe=  255 fps=0.8 q=27.1 size=    2048KiB time=00:00:04.21 bitrate=3978.9kbits/s speed=0.0128x elapsed=0:05:30.12    \nframe=  256 fps=0.8 q=32.6 size=    2048KiB time=00:00:04.23 bitrate=3963.2kbits/s speed=0.0128x elapsed=0:05:30.69    \nframe=  257 fps=0.8 q=34.8 size=    2048KiB time=00:00:04.25 bitrate=3947.7kbits/s speed=0.0128x elapsed=0:05:31.22    \nframe=  257 fps=0.8 q=34.8 size=    2048KiB time=00:00:04.25 bitrate=3947.7kbits/s speed=0.0128x elapsed=0:05:31.78    \nframe=  258 fps=0.8 q=26.8 size=    2048KiB time=00:00:04.26 bitrate=3932.2kbits/s speed=0.0128x elapsed=0:05:32.34    \nframe=  258 fps=0.8 q=26.8 size=    2048KiB time=00:00:04.26 bitrate=3932.2kbits/s speed=0.0128x elapsed=0:05:32.86    \nframe=  258 fps=0.8 q=26.8 size=    2048KiB time=00:00:04.26 bitrate=3932.2kbits/s speed=0.0128x elapsed=0:05:33.38    \nframe=  258 fps=0.8 q=26.8 size=    2048KiB time=00:00:04.26 bitrate=3932.2kbits/s speed=0.0128x elapsed=0:05:33.93    \nframe=  258 fps=0.8 q=26.8 size=    2048KiB time=00:00:04.26 bitrate=3932.2kbits/s speed=0.0128x elapsed=0:05:34.46    \nframe=  258 fps=0.8 q=26.8 size=    2048KiB time=00:00:04.26 bitrate=3932.2kbits/s speed=0.0127x elapsed=0:05:35.01    \nframe=  258 fps=0.8 q=26.8 size=    2048KiB time=00:00:04.26 bitrate=3932.2kbits/s speed=0.0127x elapsed=0:05:35.57    \nframe=  258 fps=0.8 q=26.8 size=    2048KiB time=00:00:04.26 bitrate=3932.2kbits/s speed=0.0127x elapsed=0:05:36.08    \nframe=  258 fps=0.8 q=26.8 size=    2048KiB time=00:00:04.26 bitrate=3932.2kbits/s speed=0.0127x elapsed=0:05:36.66    \nframe=  258 fps=0.8 q=26.8 size=    2048KiB time=00:00:04.26 bitrate=3932.2kbits/s speed=0.0127x elapsed=0:05:37.22    \nframe=  258 fps=0.8 q=26.8 size=    2048KiB time=00:00:04.26 bitrate=3932.2kbits/s speed=0.0126x elapsed=0:05:37.78    \nframe=  259 fps=0.8 q=34.8 size=    2048KiB time=00:00:04.28 bitrate=3916.9kbits/s speed=0.0127x elapsed=0:05:38.31    \nframe=  259 fps=0.8 q=34.8 size=    2048KiB time=00:00:04.28 bitrate=3916.9kbits/s speed=0.0126x elapsed=0:05:38.87    \nframe=  259 fps=0.8 q=34.8 size=    2048KiB time=00:00:04.28 bitrate=3916.9kbits/s speed=0.0126x elapsed=0:05:39.41    \nframe=  259 fps=0.8 q=34.8 size=    2048KiB time=00:00:04.28 bitrate=3916.9kbits/s speed=0.0126x elapsed=0:05:39.95    \nframe=  259 fps=0.8 q=34.8 size=    2048KiB time=00:00:04.28 bitrate=3916.9kbits/s speed=0.0126x elapsed=0:05:40.49    \nframe=  259 fps=0.8 q=34.8 size=    2048KiB time=00:00:04.28 bitrate=3916.9kbits/s speed=0.0126x elapsed=0:05:41.02    \nframe=  259 fps=0.8 q=34.8 size=    2048KiB time=00:00:04.28 bitrate=3916.9kbits/s speed=0.0125x elapsed=0:05:41.57    \nframe=  259 fps=0.8 q=34.8 size=    2048KiB time=00:00:04.28 bitrate=3916.9kbits/s speed=0.0125x elapsed=0:05:42.14    \nframe=  259 fps=0.8 q=34.8 size=    2048KiB time=00:00:04.28 bitrate=3916.9kbits/s speed=0.0125x elapsed=0:05:42.69    \nframe=  259 fps=0.8 q=34.8 size=    2048KiB time=00:00:04.28 bitrate=3916.9kbits/s speed=0.0125x elapsed=0:05:43.22    \nframe=  259 fps=0.8 q=34.8 size=    2048KiB time=00:00:04.28 bitrate=3916.9kbits/s speed=0.0125x elapsed=0:05:43.75    \nframe=  259 fps=0.8 q=34.8 size=    2048KiB time=00:00:04.28 bitrate=3916.9kbits/s speed=0.0124x elapsed=0:05:44.27    \nframe=  259 fps=0.8 q=34.8 size=    2048KiB time=00:00:04.28 bitrate=3916.9kbits/s speed=0.0124x elapsed=0:05:44.80    \nframe=  259 fps=0.7 q=34.8 size=    2048KiB time=00:00:04.28 bitrate=3916.9kbits/s speed=0.0124x elapsed=0:05:45.35    \nframe=  259 fps=0.7 q=34.8 size=    2048KiB time=00:00:04.28 bitrate=3916.9kbits/s speed=0.0124x elapsed=0:05:45.93    \nframe=  260 fps=0.8 q=27.2 size=    2048KiB time=00:00:04.30 bitrate=3901.8kbits/s speed=0.0124x elapsed=0:05:46.45    \nframe=  261 fps=0.8 q=31.6 size=    2048KiB time=00:00:04.31 bitrate=3886.7kbits/s speed=0.0124x elapsed=0:05:46.96    \nframe=  261 fps=0.8 q=31.6 size=    2048KiB time=00:00:04.31 bitrate=3886.7kbits/s speed=0.0124x elapsed=0:05:47.48    \nframe=  262 fps=0.8 q=34.7 size=    2048KiB time=00:00:04.33 bitrate=3871.7kbits/s speed=0.0125x elapsed=0:05:47.99    \nframe=  262 fps=0.8 q=34.7 size=    2048KiB time=00:00:04.33 bitrate=3871.7kbits/s speed=0.0124x elapsed=0:05:48.52    \nframe=  262 fps=0.8 q=34.7 size=    2048KiB time=00:00:04.33 bitrate=3871.7kbits/s speed=0.0124x elapsed=0:05:49.02    \nframe=  262 fps=0.7 q=34.7 size=    2048KiB time=00:00:04.33 bitrate=3871.7kbits/s speed=0.0124x elapsed=0:05:49.55    \nframe=  262 fps=0.7 q=34.7 size=    2048KiB time=00:00:04.33 bitrate=3871.7kbits/s speed=0.0124x elapsed=0:05:50.07    \nframe=  262 fps=0.7 q=34.7 size=    2048KiB time=00:00:04.33 bitrate=3871.7kbits/s speed=0.0124x elapsed=0:05:50.57    \nframe=  262 fps=0.7 q=34.7 size=    2048KiB time=00:00:04.33 bitrate=3871.7kbits/s speed=0.0123x elapsed=0:05:51.10    \nframe=  263 fps=0.7 q=38.0 size=    2048KiB time=00:00:04.35 bitrate=3856.9kbits/s speed=0.0124x elapsed=0:05:51.61    \nframe=  264 fps=0.7 q=38.0 size=    2048KiB time=00:00:04.36 bitrate=3842.2kbits/s speed=0.0124x elapsed=0:05:52.14    \nframe=  264 fps=0.7 q=38.0 size=    2048KiB time=00:00:04.36 bitrate=3842.2kbits/s speed=0.0124x elapsed=0:05:52.72    \nframe=  264 fps=0.7 q=38.0 size=    2048KiB time=00:00:04.36 bitrate=3842.2kbits/s speed=0.0124x elapsed=0:05:53.26    \nframe=  264 fps=0.7 q=38.0 size=    2048KiB time=00:00:04.36 bitrate=3842.2kbits/s speed=0.0123x elapsed=0:05:53.80    \nframe=  265 fps=0.7 q=30.5 size=    2048KiB time=00:00:04.38 bitrate=3827.6kbits/s speed=0.0124x elapsed=0:05:54.32    \nframe=  266 fps=0.7 q=38.8 size=    2048KiB time=00:00:04.40 bitrate=3813.1kbits/s speed=0.0124x elapsed=0:05:54.84    \nframe=  267 fps=0.8 q=38.8 size=    2048KiB time=00:00:04.41 bitrate=3798.7kbits/s speed=0.0124x elapsed=0:05:55.36    \nframe=  267 fps=0.8 q=38.8 size=    2048KiB time=00:00:04.41 bitrate=3798.7kbits/s speed=0.0124x elapsed=0:05:55.87    \nframe=  267 fps=0.7 q=38.8 size=    2048KiB time=00:00:04.41 bitrate=3798.7kbits/s speed=0.0124x elapsed=0:05:56.39    \nframe=  267 fps=0.7 q=38.8 size=    2048KiB time=00:00:04.41 bitrate=3798.7kbits/s speed=0.0124x elapsed=0:05:56.91    \nframe=  267 fps=0.7 q=38.8 size=    2048KiB time=00:00:04.41 bitrate=3798.7kbits/s speed=0.0124x elapsed=0:05:57.46    \nframe=  267 fps=0.7 q=38.8 size=    2048KiB time=00:00:04.41 bitrate=3798.7kbits/s speed=0.0123x elapsed=0:05:58.02    \nframe=  268 fps=0.7 q=40.0 size=    2048KiB time=00:00:04.43 bitrate=3784.4kbits/s speed=0.0124x elapsed=0:05:58.53    \nframe=  268 fps=0.7 q=40.0 size=    2048KiB time=00:00:04.43 bitrate=3784.4kbits/s speed=0.0123x elapsed=0:05:59.06    \nframe=  268 fps=0.7 q=40.0 size=    2048KiB time=00:00:04.43 bitrate=3784.4kbits/s speed=0.0123x elapsed=0:05:59.60    \nframe=  269 fps=0.7 q=40.0 size=    2048KiB time=00:00:04.45 bitrate=3770.2kbits/s speed=0.0124x elapsed=0:06:00.11    \nframe=  269 fps=0.7 q=40.0 size=    2048KiB time=00:00:04.45 bitrate=3770.2kbits/s speed=0.0123x elapsed=0:06:00.62    \nframe=  269 fps=0.7 q=40.0 size=    2048KiB time=00:00:04.45 bitrate=3770.2kbits/s speed=0.0123x elapsed=0:06:01.16    \nframe=  270 fps=0.7 q=32.9 size=    2048KiB time=00:00:04.46 bitrate=3756.2kbits/s speed=0.0123x elapsed=0:06:01.68    \nframe=  271 fps=0.7 q=39.4 size=    2304KiB time=00:00:04.48 bitrate=4210.0kbits/s speed=0.0124x elapsed=0:06:02.21    \nframe=  271 fps=0.7 q=39.4 size=    2304KiB time=00:00:04.48 bitrate=4210.0kbits/s speed=0.0124x elapsed=0:06:02.71    \nframe=  271 fps=0.7 q=39.4 size=    2304KiB time=00:00:04.48 bitrate=4210.0kbits/s speed=0.0123x elapsed=0:06:03.23    \nframe=  271 fps=0.7 q=39.4 size=    2304KiB time=00:00:04.48 bitrate=4210.0kbits/s speed=0.0123x elapsed=0:06:03.75    \nframe=  271 fps=0.7 q=39.4 size=    2304KiB time=00:00:04.48 bitrate=4210.0kbits/s speed=0.0123x elapsed=0:06:04.27    \nframe=  272 fps=0.7 q=39.9 size=    2304KiB time=00:00:04.50 bitrate=4194.4kbits/s speed=0.0123x elapsed=0:06:04.82    \nframe=  272 fps=0.7 q=39.9 size=    2304KiB time=00:00:04.50 bitrate=4194.4kbits/s speed=0.0123x elapsed=0:06:05.35    \nframe=  272 fps=0.7 q=39.9 size=    2304KiB time=00:00:04.50 bitrate=4194.4kbits/s speed=0.0123x elapsed=0:06:05.89    \nframe=  272 fps=0.7 q=39.9 size=    2304KiB time=00:00:04.50 bitrate=4194.4kbits/s speed=0.0123x elapsed=0:06:06.43    \nframe=  273 fps=0.7 q=40.9 size=    2304KiB time=00:00:04.51 bitrate=4178.9kbits/s speed=0.0123x elapsed=0:06:06.95    \nframe=  273 fps=0.7 q=40.9 size=    2304KiB time=00:00:04.51 bitrate=4178.9kbits/s speed=0.0123x elapsed=0:06:07.49    \nframe=  273 fps=0.7 q=40.9 size=    2304KiB time=00:00:04.51 bitrate=4178.9kbits/s speed=0.0123x elapsed=0:06:08.03    \nframe=  273 fps=0.7 q=40.9 size=    2304KiB time=00:00:04.51 bitrate=4178.9kbits/s speed=0.0123x elapsed=0:06:08.56    \nframe=  273 fps=0.7 q=40.9 size=    2304KiB time=00:00:04.51 bitrate=4178.9kbits/s speed=0.0122x elapsed=0:06:09.10    \nframe=  273 fps=0.7 q=40.9 size=    2304KiB time=00:00:04.51 bitrate=4178.9kbits/s speed=0.0122x elapsed=0:06:09.62    \nframe=  274 fps=0.7 q=31.8 size=    2304KiB time=00:00:04.53 bitrate=4163.5kbits/s speed=0.0122x elapsed=0:06:10.14    \nframe=  276 fps=0.7 q=40.9 size=    2304KiB time=00:00:04.56 bitrate=4133.2kbits/s speed=0.0123x elapsed=0:06:10.65    \nframe=  276 fps=0.7 q=40.9 size=    2304KiB time=00:00:04.56 bitrate=4133.2kbits/s speed=0.0123x elapsed=0:06:11.17    \nframe=  276 fps=0.7 q=40.9 size=    2304KiB time=00:00:04.56 bitrate=4133.2kbits/s speed=0.0123x elapsed=0:06:11.72    \nframe=  276 fps=0.7 q=40.9 size=    2304KiB time=00:00:04.56 bitrate=4133.2kbits/s speed=0.0123x elapsed=0:06:12.26    \nframe=  276 fps=0.7 q=40.9 size=    2304KiB time=00:00:04.56 bitrate=4133.2kbits/s speed=0.0122x elapsed=0:06:12.78    \nframe=  277 fps=0.7 q=40.7 size=    2304KiB time=00:00:04.58 bitrate=4118.1kbits/s speed=0.0123x elapsed=0:06:13.32    \nframe=  277 fps=0.7 q=40.7 size=    2304KiB time=00:00:04.58 bitrate=4118.1kbits/s speed=0.0123x elapsed=0:06:13.82    \nframe=  278 fps=0.7 q=40.0 size=    2304KiB time=00:00:04.60 bitrate=4103.2kbits/s speed=0.0123x elapsed=0:06:14.34    \nframe=  278 fps=0.7 q=40.0 size=    2304KiB time=00:00:04.60 bitrate=4103.2kbits/s speed=0.0123x elapsed=0:06:14.87    \nframe=  278 fps=0.7 q=40.0 size=    2304KiB time=00:00:04.60 bitrate=4103.2kbits/s speed=0.0123x elapsed=0:06:15.39    \nframe=  279 fps=0.7 q=32.0 size=    2304KiB time=00:00:04.61 bitrate=4088.4kbits/s speed=0.0123x elapsed=0:06:15.91    \nframe=  279 fps=0.7 q=32.0 size=    2304KiB time=00:00:04.61 bitrate=4088.4kbits/s speed=0.0123x elapsed=0:06:16.44    \nframe=  280 fps=0.7 q=37.9 size=    2304KiB time=00:00:04.63 bitrate=4073.7kbits/s speed=0.0123x elapsed=0:06:16.95    \nframe=  281 fps=0.7 q=39.0 size=    2304KiB time=00:00:04.65 bitrate=4059.1kbits/s speed=0.0123x elapsed=0:06:17.47    \nframe=  282 fps=0.7 q=40.0 size=    2304KiB time=00:00:04.66 bitrate=4044.6kbits/s speed=0.0123x elapsed=0:06:17.98    \nframe=  282 fps=0.7 q=40.0 size=    2304KiB time=00:00:04.66 bitrate=4044.6kbits/s speed=0.0123x elapsed=0:06:18.51    \nframe=  283 fps=0.7 q=39.9 size=    2304KiB time=00:00:04.68 bitrate=4030.2kbits/s speed=0.0124x elapsed=0:06:19.05    \nframe=  284 fps=0.7 q=32.2 size=    2304KiB time=00:00:04.70 bitrate=4015.9kbits/s speed=0.0124x elapsed=0:06:19.58    \nframe=  285 fps=0.7 q=38.5 size=    2304KiB time=00:00:04.71 bitrate=4001.7kbits/s speed=0.0124x elapsed=0:06:20.10    \nframe=  285 fps=0.7 q=38.5 size=    2304KiB time=00:00:04.71 bitrate=4001.7kbits/s speed=0.0124x elapsed=0:06:20.62    \nframe=  285 fps=0.7 q=38.5 size=    2304KiB time=00:00:04.71 bitrate=4001.7kbits/s speed=0.0124x elapsed=0:06:21.15    \nframe=  286 fps=0.7 q=40.0 size=    2304KiB time=00:00:04.73 bitrate=3987.6kbits/s speed=0.0124x elapsed=0:06:21.66    \nframe=  286 fps=0.7 q=40.0 size=    2304KiB time=00:00:04.73 bitrate=3987.6kbits/s speed=0.0124x elapsed=0:06:22.18    \nframe=  287 fps=0.7 q=40.0 size=    2304KiB time=00:00:04.75 bitrate=3973.6kbits/s speed=0.0124x elapsed=0:06:22.70    \nframe=  287 fps=0.7 q=40.0 size=    2304KiB time=00:00:04.75 bitrate=3973.6kbits/s speed=0.0124x elapsed=0:06:23.22    \nframe=  287 fps=0.7 q=40.0 size=    2304KiB time=00:00:04.75 bitrate=3973.6kbits/s speed=0.0124x elapsed=0:06:23.75    \nframe=  288 fps=0.7 q=28.5 size=    2304KiB time=00:00:04.76 bitrate=3959.7kbits/s speed=0.0124x elapsed=0:06:24.28    \nframe=  289 fps=0.8 q=38.6 size=    2304KiB time=00:00:04.78 bitrate=3945.9kbits/s speed=0.0124x elapsed=0:06:24.79    \nframe=  289 fps=0.8 q=38.6 size=    2304KiB time=00:00:04.78 bitrate=3945.9kbits/s speed=0.0124x elapsed=0:06:25.31    \nframe=  290 fps=0.8 q=36.9 size=    2304KiB time=00:00:04.80 bitrate=3932.2kbits/s speed=0.0124x elapsed=0:06:25.83    \nframe=  290 fps=0.8 q=36.9 size=    2304KiB time=00:00:04.80 bitrate=3932.2kbits/s speed=0.0124x elapsed=0:06:26.37    \nframe=  290 fps=0.7 q=36.9 size=    2304KiB time=00:00:04.80 bitrate=3932.2kbits/s speed=0.0124x elapsed=0:06:26.90    \nframe=  291 fps=0.8 q=37.0 size=    2304KiB time=00:00:04.81 bitrate=3918.6kbits/s speed=0.0124x elapsed=0:06:27.40    \nframe=  291 fps=0.8 q=37.0 size=    2304KiB time=00:00:04.81 bitrate=3918.6kbits/s speed=0.0124x elapsed=0:06:27.93    \nframe=  293 fps=0.8 q=39.1 size=    2304KiB time=00:00:04.85 bitrate=3891.7kbits/s speed=0.0125x elapsed=0:06:28.43    \nframe=  293 fps=0.8 q=39.1 size=    2304KiB time=00:00:04.85 bitrate=3891.7kbits/s speed=0.0125x elapsed=0:06:28.96    \nframe=  294 fps=0.8 q=36.9 size=    2304KiB time=00:00:04.86 bitrate=3878.4kbits/s speed=0.0125x elapsed=0:06:29.49    \nframe=  295 fps=0.8 q=36.6 size=    2304KiB time=00:00:04.88 bitrate=3865.1kbits/s speed=0.0125x elapsed=0:06:30.00    \nframe=  296 fps=0.8 q=36.9 size=    2304KiB time=00:00:04.90 bitrate=3852.0kbits/s speed=0.0125x elapsed=0:06:30.53    \nframe=  297 fps=0.8 q=32.2 size=    2304KiB time=00:00:04.91 bitrate=3838.9kbits/s speed=0.0126x elapsed=0:06:31.05    \nframe=  298 fps=0.8 q=31.8 size=    2304KiB time=00:00:04.93 bitrate=3826.0kbits/s speed=0.0126x elapsed=0:06:31.58    \nframe=  299 fps=0.8 q=34.9 size=    2304KiB time=00:00:04.95 bitrate=3813.1kbits/s speed=0.0126x elapsed=0:06:32.09    \n[mp4 @ 00000296084dad40] Starting second pass: moving the moov atom to the beginning of the file\n[out#0/mp4 @ 00000296084dac40] video:2522KiB audio:0KiB subtitle:0KiB other streams:0KiB global headers:2KiB muxing overhead: 0.273870%\nframe=  300 fps=0.8 q=35.1 Lsize=    2529KiB time=00:00:04.96 bitrate=4171.9kbits/s speed=0.0127x elapsed=0:06:32.16    \nx265 [info]: frame I:      2, Avg QP:29.46  kb/s: 22465.20\nx265 [info]: frame P:     73, Avg QP:27.52  kb/s: 14627.07\nx265 [info]: frame B:    225, Avg QP:33.37  kb/s: 562.43  \nx265 [info]: Weighted P-Frames: Y:0.0% UV:0.0%\n\nencoded 300 frames in 391.68s (0.77 fps), 4130.84 kb/s, Avg QP:31.92\n",
  "seconds": 392.683207988739,
  "probe_out": {}
}